<svg width="384" height="200" viewBox="0 0 384 200" fill="none" xmlns="http://www.w3.org/2000/svg">
<g clip-path="url(#clip0_4328_196280)">
<path d="M0 12C0 5.37258 5.37258 0 12 0H372C378.627 0 384 5.37258 384 12V200H0V12Z" fill="#F6F6F6"/>
<line x1="73.9004" y1="231.25" x2="73.9004" y2="0.75" stroke="#EAEAEA" stroke-width="1.5" stroke-linecap="round" stroke-dasharray="4 7"/>
<line x1="184.299" y1="231.25" x2="184.299" y2="0.75" stroke="#EAEAEA" stroke-width="1.5" stroke-linecap="round" stroke-dasharray="4 7"/>
<line x1="294.697" y1="231.25" x2="294.697" y2="0.75" stroke="#EAEAEA" stroke-width="1.5" stroke-linecap="round" stroke-dasharray="4 7"/>
<g style="mix-blend-mode:multiply" opacity="0.2">
<path d="M-60.2251 181.336C-63.0685 180.807 -67.9265 183.318 -70 184.639V304H440.049V167.243C437.605 167.243 438.05 167.243 434.051 162.839C430.052 158.435 428.942 156.453 422.277 159.756C415.613 163.059 414.724 159.756 410.281 153.81C405.838 147.865 403.617 149.626 398.285 151.608C392.954 153.59 392.065 145.442 386.396 139.937C380.726 134.432 378.292 146.543 376.071 155.131C373.863 163.668 368.801 171.551 364.159 178.782L364.075 178.914C359.41 186.18 352.523 176.051 350.302 171.647C348.08 167.243 347.414 166.582 340.749 167.243C334.085 167.903 332.086 165.041 329.864 159.756C327.643 154.471 328.087 155.792 322.978 151.608C317.868 147.424 315.425 150.287 312.537 149.626C309.649 148.966 306.317 141.259 304.095 136.854C301.874 132.45 302.096 129.367 295.431 131.349C288.863 133.303 287.474 130.978 284.032 125.218L283.88 124.963C280.325 119.018 277.882 117.256 270.773 114.173C263.664 111.09 265.886 112.412 260.554 114.173C255.223 115.935 252.557 113.513 249.225 109.329C245.893 105.145 247.004 96.7772 237.896 100.08C228.788 103.383 226.788 95.4559 224.789 87.0882C222.789 78.7204 217.236 78.7204 211.682 80.4819C206.129 82.2435 203.685 70.1324 203.241 61.7646C202.796 53.3968 202.352 50.0938 195.91 50.0938C189.468 50.0937 189.912 63.306 187.468 80.4819C185.025 97.6579 186.357 98.0984 179.027 98.759L179.027 98.759C171.696 99.4196 171.696 99.4196 167.697 112.412C163.699 125.404 162.144 124.963 155.035 124.963C147.926 124.963 145.26 135.313 142.817 146.103C140.402 156.765 135.168 153.881 127.328 149.562L127.044 149.406C119.047 145.002 117.27 146.103 112.161 130.468C107.051 114.834 100.609 122.101 97.721 131.79C94.8331 141.479 93.2781 142.8 88.3909 146.103C83.5036 149.406 78.6164 150.287 76.8392 156.232C75.0621 162.178 69.0641 167.022 63.9547 163.499C58.8454 159.976 55.0689 160.857 52.181 167.022C49.2931 173.188 46.4052 172.968 43.073 173.629C39.7408 174.289 32.6321 173.629 29.0777 179.794C25.5234 185.96 20.6362 184.639 17.9704 183.318C15.3046 181.996 9.75098 181.336 7.97382 183.318C6.19665 185.299 0.865128 192.346 -5.02581 181.336C-10.9167 170.326 -17.573 177.592 -18.9059 179.794L-18.9592 179.883C-20.3206 182.134 -23.4129 187.247 -28.2361 184.639C-33.1233 181.997 -37.1219 181.336 -40.8984 184.639C-44.6749 187.942 -48.2293 189.263 -50.895 187.281C-53.5608 185.3 -56.6708 181.996 -60.2251 181.336Z" fill="url(#paint0_linear_4328_196280)"/>
</g>
<path d="M-68 183.553C-65.9426 182.242 -61.1225 179.751 -58.3012 180.275C-54.7746 180.931 -51.6887 184.208 -49.0437 186.175C-46.3987 188.141 -42.872 186.83 -39.1249 183.553C-35.3778 180.275 -31.4103 180.931 -26.5611 183.553C-21.7119 186.175 -18.6261 180.931 -17.3036 178.746C-15.9811 176.561 -9.3766 169.351 -3.53151 180.275C2.31358 191.2 7.6036 184.208 9.36694 182.242C11.1303 180.275 16.6407 180.931 19.2857 182.242C21.9307 183.553 26.7799 184.864 30.3066 178.746C33.8333 172.628 40.8866 173.284 44.1929 172.628C47.4992 171.973 50.3646 172.191 53.23 166.073C56.0955 159.956 59.8425 159.082 64.9122 162.577C69.9818 166.073 75.933 161.267 77.6964 155.367C79.4597 149.468 84.3089 148.594 89.1581 145.317C94.0073 142.039 95.5502 140.728 98.4156 131.115C101.281 121.501 107.673 114.291 112.743 129.804C117.812 145.317 119.576 144.224 127.511 148.594C135.446 152.964 140.736 156.023 143.16 145.317C145.585 134.611 148.23 124.341 155.283 124.341C162.337 124.341 163.88 124.778 167.847 111.888C171.815 98.9965 171.815 98.9966 179.088 98.3411C186.362 97.6857 185.04 97.2487 187.464 80.2064C189.889 63.1641 189.448 50.0547 195.84 50.0547C202.232 50.0547 202.673 53.332 203.114 61.6347C203.555 69.9374 205.979 81.9542 211.49 80.2064C217 78.4585 222.511 78.4585 224.494 86.7612C226.478 95.0638 228.462 102.929 237.499 99.6521C246.536 96.3748 245.434 104.677 248.74 108.829C252.047 112.98 254.692 115.384 259.982 113.636C265.272 111.888 263.068 110.577 270.121 113.636C277.174 116.694 279.599 118.442 283.126 124.342C286.652 130.241 287.975 132.644 294.587 130.678C301.2 128.711 300.979 131.77 303.184 136.14C305.388 140.51 308.694 148.157 311.559 148.813C314.425 149.468 316.849 146.628 321.919 150.779C326.989 154.93 326.548 153.619 328.752 158.863C330.956 164.107 332.94 166.947 339.552 166.292C346.165 165.636 346.826 166.292 349.03 170.662C351.235 175.031 358.067 185.082 362.696 177.872C367.325 170.662 372.395 162.796 374.599 154.275C376.803 145.754 379.218 133.737 384.843 139.199C390.469 144.661 391.351 152.745 396.641 150.779C401.931 148.813 404.135 147.065 408.543 152.964C412.951 158.863 413.833 162.141 420.446 158.863C427.058 155.586 428.16 157.552 432.128 161.922C436.095 166.292 435.654 166.292 438.079 166.292" stroke="#0891B2" stroke-width="2" stroke-linecap="round"/>
<line x1="105.104" y1="120.666" x2="105.104" y2="231" stroke="#BEBEBE" stroke-width="2" stroke-linecap="round" stroke-dasharray="7 7"/>
<g filter="url(#filter0_dd_4328_196280)">
<circle cx="105.297" cy="119.666" r="10.8438" fill="#0891B2"/>
<circle cx="105.297" cy="119.666" r="9.34375" stroke="white" stroke-width="3"/>
</g>
<g filter="url(#filter1_d_4328_196280)">
<mask id="path-11-inside-1_4328_196280" fill="white">
<path fill-rule="evenodd" clip-rule="evenodd" d="M69 47C64.5817 47 61 50.5817 61 55L61 91C61 95.4183 64.5817 99 69 99L96.1951 99C96.2077 99.0146 96.2206 99.0291 96.2338 99.0436L102.756 106.185C103.549 107.053 104.916 107.053 105.709 106.185L112.231 99.0436C112.245 99.0291 112.257 99.0146 112.27 99L139 99C143.418 99 147 95.4183 147 91L147 55C147 50.5817 143.418 47 139 47L69 47Z"/>
</mask>
<path fill-rule="evenodd" clip-rule="evenodd" d="M69 47C64.5817 47 61 50.5817 61 55L61 91C61 95.4183 64.5817 99 69 99L96.1951 99C96.2077 99.0146 96.2206 99.0291 96.2338 99.0436L102.756 106.185C103.549 107.053 104.916 107.053 105.709 106.185L112.231 99.0436C112.245 99.0291 112.257 99.0146 112.27 99L139 99C143.418 99 147 95.4183 147 91L147 55C147 50.5817 143.418 47 139 47L69 47Z" fill="white"/>
<path d="M69 47L69 48L69 47ZM69 99L69 98L69 99ZM96.1951 99L96.9513 98.3457L96.6522 98L96.1951 98L96.1951 99ZM96.2338 99.0436L95.4954 99.7179L95.4954 99.7179L96.2338 99.0436ZM102.756 106.185L103.494 105.51L103.494 105.51L102.756 106.185ZM105.709 106.185L104.971 105.51L104.971 105.51L105.709 106.185ZM112.231 99.0436L112.97 99.7179L112.97 99.7179L112.231 99.0436ZM112.27 99L112.27 98L111.813 98L111.514 98.3457L112.27 99ZM147 91L148 91L147 91ZM147 55L146 55L147 55ZM139 47L139 46L139 47ZM62 55C62 51.134 65.134 48 69 48L69 46C64.0294 46 60 50.0294 60 55L62 55ZM62 91L62 55L60 55L60 91L62 91ZM69 98C65.134 98 62 94.866 62 91L60 91C60 95.9706 64.0294 100 69 100L69 98ZM96.1951 98L69 98L69 100L96.1951 100L96.1951 98ZM96.9722 98.3692C96.965 98.3613 96.958 98.3535 96.9513 98.3457L95.4389 99.6543C95.4574 99.6758 95.4762 99.697 95.4954 99.7179L96.9722 98.3692ZM103.494 105.51L96.9722 98.3692L95.4954 99.7179L102.017 106.859L103.494 105.51ZM104.971 105.51C104.574 105.945 103.891 105.945 103.494 105.51L102.017 106.859C103.207 108.162 105.258 108.162 106.448 106.859L104.971 105.51ZM111.493 98.3692L104.971 105.51L106.448 106.859L112.97 99.7179L111.493 98.3692ZM111.514 98.3457C111.507 98.3535 111.5 98.3614 111.493 98.3692L112.97 99.7179C112.989 99.6969 113.008 99.6757 113.026 99.6543L111.514 98.3457ZM139 98L112.27 98L112.27 100L139 100L139 98ZM146 91C146 94.866 142.866 98 139 98L139 100C143.971 100 148 95.9706 148 91L146 91ZM146 55L146 91L148 91L148 55L146 55ZM139 48C142.866 48 146 51.134 146 55L148 55C148 50.0294 143.971 46 139 46L139 48ZM69 48L139 48L139 46L69 46L69 48Z" fill="#BEBEBE" mask="url(#path-11-inside-1_4328_196280)"/>
</g>
<path d="M82.2474 88.392V87.16C81.2128 87.0427 80.3701 86.68 79.7194 86.072C79.0688 85.464 78.7328 84.648 78.7114 83.624H80.8714C80.8928 84.0507 81.0208 84.424 81.2554 84.744C81.5008 85.064 81.8314 85.2827 82.2474 85.4V82.024C82.1514 81.992 82.0501 81.96 81.9434 81.928C81.8474 81.896 81.7461 81.864 81.6394 81.832C80.7754 81.5333 80.1141 81.1493 79.6554 80.68C79.2074 80.2107 78.9834 79.5867 78.9834 78.808C78.9728 77.8907 79.2714 77.1547 79.8794 76.6C80.4874 76.0347 81.2768 75.7093 82.2474 75.624V74.328H83.3194V75.64C84.2794 75.736 85.0528 76.072 85.6394 76.648C86.2368 77.2133 86.5514 77.944 86.5834 78.84H84.3914C84.3808 78.5307 84.2794 78.248 84.0874 77.992C83.9061 77.7253 83.6501 77.5387 83.3194 77.432V80.408C83.4048 80.44 83.4901 80.472 83.5754 80.504C83.6608 80.5253 83.7461 80.552 83.8314 80.584C84.3861 80.776 84.8928 81 85.3514 81.256C85.8101 81.512 86.1781 81.8533 86.4554 82.28C86.7328 82.696 86.8714 83.2347 86.8714 83.896C86.8714 84.4507 86.7328 84.968 86.4554 85.448C86.1888 85.928 85.7888 86.328 85.2554 86.648C84.7328 86.9573 84.0874 87.1333 83.3194 87.176V88.392H82.2474ZM81.1274 78.664C81.1274 79.0053 81.2288 79.2827 81.4314 79.496C81.6341 79.6987 81.9061 79.8747 82.2474 80.024V77.368C81.9168 77.432 81.6448 77.576 81.4314 77.8C81.2288 78.024 81.1274 78.312 81.1274 78.664ZM84.6954 84.04C84.6954 83.6133 84.5674 83.2773 84.3114 83.032C84.0554 82.7867 83.7248 82.5787 83.3194 82.408V85.448C83.7461 85.384 84.0821 85.2293 84.3274 84.984C84.5728 84.7387 84.6954 84.424 84.6954 84.04ZM89.8743 87V78.136L88.0343 78.568V77L90.7383 75.8H92.0023V87H89.8743ZM95.0059 87.112C94.6326 87.112 94.3233 86.9947 94.0779 86.76C93.8433 86.5253 93.7259 86.2427 93.7259 85.912C93.7259 85.5707 93.8433 85.2827 94.0779 85.048C94.3233 84.8133 94.6326 84.696 95.0059 84.696C95.3793 84.696 95.6833 84.8133 95.9179 85.048C96.1633 85.2827 96.2859 85.5707 96.2859 85.912C96.2859 86.2427 96.1633 86.5253 95.9179 86.76C95.6833 86.9947 95.3793 87.112 95.0059 87.112ZM97.7457 87V85.512C98.4284 84.9467 99.0897 84.3867 99.7297 83.832C100.38 83.2773 100.956 82.728 101.458 82.184C101.97 81.64 102.375 81.112 102.674 80.6C102.983 80.0773 103.138 79.5707 103.138 79.08C103.138 78.6213 103.01 78.216 102.754 77.864C102.508 77.512 102.098 77.336 101.522 77.336C100.935 77.336 100.492 77.528 100.194 77.912C99.895 78.296 99.7457 78.76 99.7457 79.304H97.7617C97.783 78.4827 97.9644 77.8 98.3057 77.256C98.647 76.7013 99.1004 76.2907 99.6657 76.024C100.231 75.7467 100.866 75.608 101.57 75.608C102.711 75.608 103.596 75.9227 104.226 76.552C104.866 77.1707 105.186 77.976 105.186 78.968C105.186 79.5867 105.042 80.1893 104.754 80.776C104.476 81.3627 104.108 81.928 103.65 82.472C103.191 83.016 102.695 83.528 102.162 84.008C101.628 84.4773 101.111 84.9147 100.61 85.32H105.458V87H97.7457ZM111.174 87.192C110.353 87.192 109.644 87.048 109.046 86.76C108.46 86.472 107.996 86.0773 107.654 85.576C107.324 85.064 107.132 84.488 107.078 83.848H109.078C109.174 84.3067 109.409 84.6907 109.782 85C110.156 85.2987 110.62 85.448 111.174 85.448C111.772 85.448 112.257 85.2293 112.63 84.792C113.014 84.3547 113.206 83.8107 113.206 83.16C113.206 82.488 113.014 81.9547 112.63 81.56C112.257 81.1653 111.782 80.968 111.206 80.968C110.726 80.968 110.31 81.0853 109.958 81.32C109.606 81.5547 109.356 81.848 109.206 82.2H107.238L108.198 75.8H114.406V77.592H109.734L109.222 80.184C109.457 79.928 109.777 79.72 110.182 79.56C110.588 79.3893 111.041 79.304 111.542 79.304C112.342 79.304 113.009 79.4853 113.542 79.848C114.076 80.2 114.481 80.6693 114.758 81.256C115.036 81.832 115.174 82.4613 115.174 83.144C115.174 83.9227 115.004 84.616 114.662 85.224C114.332 85.832 113.862 86.312 113.254 86.664C112.657 87.016 111.964 87.192 111.174 87.192ZM117.032 87V79.064H118.84L119.016 80.136C119.272 79.752 119.608 79.448 120.024 79.224C120.451 78.9893 120.942 78.872 121.496 78.872C122.723 78.872 123.592 79.3467 124.104 80.296C124.392 79.8587 124.776 79.512 125.256 79.256C125.747 79 126.28 78.872 126.856 78.872C127.891 78.872 128.686 79.1813 129.24 79.8C129.795 80.4187 130.072 81.3253 130.072 82.52V87H128.024V82.712C128.024 82.0293 127.891 81.5067 127.624 81.144C127.368 80.7813 126.968 80.6 126.424 80.6C125.87 80.6 125.422 80.8027 125.08 81.208C124.75 81.6133 124.584 82.1787 124.584 82.904V87H122.536V82.712C122.536 82.0293 122.403 81.5067 122.136 81.144C121.87 80.7813 121.459 80.6 120.904 80.6C120.36 80.6 119.918 80.8027 119.576 81.208C119.246 81.6133 119.08 82.1787 119.08 82.904V87H117.032Z" fill="#333333"/>
<path d="M73.7503 66.144C72.9183 66.144 72.1983 65.964 71.5903 65.604C70.9903 65.236 70.5263 64.728 70.1983 64.08C69.8703 63.424 69.7063 62.668 69.7063 61.812C69.7063 60.948 69.8703 60.192 70.1983 59.544C70.5263 58.888 70.9903 58.376 71.5903 58.008C72.1983 57.64 72.9183 57.456 73.7503 57.456C74.7343 57.456 75.5383 57.696 76.1623 58.176C76.7863 58.656 77.1823 59.328 77.3503 60.192H75.9343C75.8223 59.704 75.5823 59.316 75.2143 59.028C74.8463 58.74 74.3543 58.596 73.7383 58.596C72.8983 58.596 72.2343 58.884 71.7463 59.46C71.2583 60.028 71.0143 60.812 71.0143 61.812C71.0143 62.804 71.2583 63.584 71.7463 64.152C72.2343 64.72 72.8983 65.004 73.7383 65.004C74.3543 65.004 74.8463 64.868 75.2143 64.596C75.5823 64.324 75.8223 63.952 75.9343 63.48H77.3503C77.1823 64.312 76.7863 64.964 76.1623 65.436C75.5383 65.908 74.7343 66.144 73.7503 66.144ZM81.4845 66.144C80.9165 66.144 80.4045 66.016 79.9485 65.76C79.5005 65.496 79.1445 65.132 78.8805 64.668C78.6165 64.196 78.4845 63.648 78.4845 63.024C78.4845 62.4 78.6165 61.856 78.8805 61.392C79.1525 60.92 79.5165 60.556 79.9725 60.3C80.4285 60.036 80.9365 59.904 81.4965 59.904C82.0645 59.904 82.5725 60.036 83.0205 60.3C83.4765 60.556 83.8365 60.92 84.1005 61.392C84.3725 61.856 84.5085 62.4 84.5085 63.024C84.5085 63.648 84.3725 64.196 84.1005 64.668C83.8365 65.132 83.4765 65.496 83.0205 65.76C82.5645 66.016 82.0525 66.144 81.4845 66.144ZM81.4845 65.052C81.7885 65.052 82.0685 64.976 82.3245 64.824C82.5885 64.672 82.8005 64.448 82.9605 64.152C83.1205 63.848 83.2005 63.472 83.2005 63.024C83.2005 62.576 83.1205 62.204 82.9605 61.908C82.8085 61.604 82.6005 61.376 82.3365 61.224C82.0805 61.072 81.8005 60.996 81.4965 60.996C81.1925 60.996 80.9085 61.072 80.6445 61.224C80.3885 61.376 80.1805 61.604 80.0205 61.908C79.8605 62.204 79.7805 62.576 79.7805 63.024C79.7805 63.472 79.8605 63.848 80.0205 64.152C80.1805 64.448 80.3885 64.672 80.6445 64.824C80.9005 64.976 81.1805 65.052 81.4845 65.052ZM85.8841 66V57.36H87.1561V66H85.8841ZM88.7669 66V57.36H90.0389V66H88.7669ZM92.3697 58.92C92.1297 58.92 91.9297 58.848 91.7697 58.704C91.6177 58.552 91.5417 58.364 91.5417 58.14C91.5417 57.916 91.6177 57.732 91.7697 57.588C91.9297 57.436 92.1297 57.36 92.3697 57.36C92.6097 57.36 92.8057 57.436 92.9577 57.588C93.1177 57.732 93.1977 57.916 93.1977 58.14C93.1977 58.364 93.1177 58.552 92.9577 58.704C92.8057 58.848 92.6097 58.92 92.3697 58.92ZM91.7337 66V60.048H93.0057V66H91.7337ZM94.6849 66V60.048H95.8129L95.9089 61.092C96.0929 60.724 96.3609 60.436 96.7129 60.228C97.0729 60.012 97.4849 59.904 97.9489 59.904C98.6689 59.904 99.2329 60.128 99.6409 60.576C100.057 61.024 100.265 61.692 100.265 62.58V66H99.0049V62.712C99.0049 61.56 98.5329 60.984 97.5889 60.984C97.1169 60.984 96.7249 61.152 96.4129 61.488C96.1089 61.824 95.9569 62.304 95.9569 62.928V66H94.6849ZM104.199 64.176C103.887 64.176 103.599 64.14 103.335 64.068L102.819 64.572C102.907 64.628 103.015 64.676 103.143 64.716C103.271 64.756 103.451 64.792 103.683 64.824C103.915 64.856 104.231 64.888 104.631 64.92C105.423 64.992 105.995 65.184 106.347 65.496C106.699 65.8 106.875 66.208 106.875 66.72C106.875 67.072 106.779 67.404 106.587 67.716C106.403 68.036 106.111 68.292 105.711 68.484C105.319 68.684 104.815 68.784 104.199 68.784C103.367 68.784 102.691 68.624 102.171 68.304C101.659 67.992 101.403 67.516 101.403 66.876C101.403 66.628 101.467 66.38 101.595 66.132C101.731 65.892 101.943 65.664 102.231 65.448C102.063 65.376 101.915 65.3 101.787 65.22C101.667 65.132 101.559 65.044 101.463 64.956V64.668L102.495 63.612C102.031 63.212 101.799 62.688 101.799 62.04C101.799 61.648 101.891 61.292 102.075 60.972C102.267 60.644 102.543 60.384 102.903 60.192C103.263 60 103.695 59.904 104.199 59.904C104.535 59.904 104.847 59.952 105.135 60.048H107.355V60.888L106.299 60.948C106.491 61.276 106.587 61.64 106.587 62.04C106.587 62.44 106.491 62.8 106.299 63.12C106.115 63.44 105.843 63.696 105.483 63.888C105.131 64.08 104.703 64.176 104.199 64.176ZM104.199 63.18C104.567 63.18 104.863 63.084 105.087 62.892C105.319 62.692 105.435 62.412 105.435 62.052C105.435 61.684 105.319 61.404 105.087 61.212C104.863 61.02 104.567 60.924 104.199 60.924C103.823 60.924 103.519 61.02 103.287 61.212C103.063 61.404 102.951 61.684 102.951 62.052C102.951 62.412 103.063 62.692 103.287 62.892C103.519 63.084 103.823 63.18 104.199 63.18ZM102.603 66.756C102.603 67.1 102.755 67.356 103.059 67.524C103.363 67.7 103.743 67.788 104.199 67.788C104.639 67.788 104.995 67.692 105.267 67.5C105.539 67.316 105.675 67.068 105.675 66.756C105.675 66.524 105.583 66.324 105.399 66.156C105.215 65.996 104.867 65.896 104.355 65.856C103.971 65.832 103.631 65.796 103.335 65.748C103.055 65.9 102.863 66.064 102.759 66.24C102.655 66.416 102.603 66.588 102.603 66.756ZM109.678 66L107.926 60.048H109.198L110.35 64.536L111.646 60.048H113.062L114.358 64.536L115.51 60.048H116.782L115.03 66H113.722L112.354 61.32L110.986 66H109.678ZM120.391 66.144C119.823 66.144 119.311 66.016 118.855 65.76C118.407 65.496 118.051 65.132 117.787 64.668C117.523 64.196 117.391 63.648 117.391 63.024C117.391 62.4 117.523 61.856 117.787 61.392C118.059 60.92 118.423 60.556 118.879 60.3C119.335 60.036 119.843 59.904 120.403 59.904C120.971 59.904 121.479 60.036 121.927 60.3C122.383 60.556 122.743 60.92 123.007 61.392C123.279 61.856 123.415 62.4 123.415 63.024C123.415 63.648 123.279 64.196 123.007 64.668C122.743 65.132 122.383 65.496 121.927 65.76C121.471 66.016 120.959 66.144 120.391 66.144ZM120.391 65.052C120.695 65.052 120.975 64.976 121.231 64.824C121.495 64.672 121.707 64.448 121.867 64.152C122.027 63.848 122.107 63.472 122.107 63.024C122.107 62.576 122.027 62.204 121.867 61.908C121.715 61.604 121.507 61.376 121.243 61.224C120.987 61.072 120.707 60.996 120.403 60.996C120.099 60.996 119.815 61.072 119.551 61.224C119.295 61.376 119.087 61.604 118.927 61.908C118.767 62.204 118.687 62.576 118.687 63.024C118.687 63.472 118.767 63.848 118.927 64.152C119.087 64.448 119.295 64.672 119.551 64.824C119.807 64.976 120.087 65.052 120.391 65.052ZM127.574 66.144C127.006 66.144 126.494 66.016 126.038 65.76C125.59 65.496 125.234 65.132 124.97 64.668C124.706 64.196 124.574 63.648 124.574 63.024C124.574 62.4 124.706 61.856 124.97 61.392C125.242 60.92 125.606 60.556 126.062 60.3C126.518 60.036 127.026 59.904 127.586 59.904C128.154 59.904 128.662 60.036 129.11 60.3C129.566 60.556 129.926 60.92 130.19 61.392C130.462 61.856 130.598 62.4 130.598 63.024C130.598 63.648 130.462 64.196 130.19 64.668C129.926 65.132 129.566 65.496 129.11 65.76C128.654 66.016 128.142 66.144 127.574 66.144ZM127.574 65.052C127.878 65.052 128.158 64.976 128.414 64.824C128.678 64.672 128.89 64.448 129.05 64.152C129.21 63.848 129.29 63.472 129.29 63.024C129.29 62.576 129.21 62.204 129.05 61.908C128.898 61.604 128.69 61.376 128.426 61.224C128.17 61.072 127.89 60.996 127.586 60.996C127.282 60.996 126.998 61.072 126.734 61.224C126.478 61.376 126.27 61.604 126.11 61.908C125.95 62.204 125.87 62.576 125.87 63.024C125.87 63.472 125.95 63.848 126.11 64.152C126.27 64.448 126.478 64.672 126.734 64.824C126.99 64.976 127.27 65.052 127.574 65.052ZM134.686 66.144C134.11 66.144 133.602 66.008 133.162 65.736C132.722 65.464 132.378 65.092 132.13 64.62C131.882 64.148 131.758 63.612 131.758 63.012C131.758 62.412 131.882 61.88 132.13 61.416C132.378 60.944 132.722 60.576 133.162 60.312C133.61 60.04 134.122 59.904 134.698 59.904C135.17 59.904 135.582 59.996 135.934 60.18C136.294 60.364 136.574 60.624 136.774 60.96V57.36H138.046V66H136.906L136.774 65.076C136.582 65.356 136.318 65.604 135.982 65.82C135.646 66.036 135.214 66.144 134.686 66.144ZM134.914 65.04C135.458 65.04 135.902 64.852 136.246 64.476C136.598 64.1 136.774 63.616 136.774 63.024C136.774 62.424 136.598 61.94 136.246 61.572C135.902 61.196 135.458 61.008 134.914 61.008C134.37 61.008 133.922 61.196 133.57 61.572C133.218 61.94 133.042 62.424 133.042 63.024C133.042 63.416 133.122 63.764 133.282 64.068C133.442 64.372 133.662 64.612 133.942 64.788C134.23 64.956 134.554 65.04 134.914 65.04Z" fill="#333333"/>
</g>
<path d="M0.5 12C0.5 5.64873 5.64873 0.5 12 0.5H372C378.351 0.5 383.5 5.64873 383.5 12V199.5H0.5V12Z" stroke="#EAEAEA"/>
<defs>
<filter id="filter0_dd_4328_196280" x="78.4531" y="94.8218" width="53.6875" height="53.6875" filterUnits="userSpaceOnUse" color-interpolation-filters="sRGB">
<feFlood flood-opacity="0" result="BackgroundImageFix"/>
<feColorMatrix in="SourceAlpha" type="matrix" values="0 0 0 0 0 0 0 0 0 0 0 0 0 0 0 0 0 0 127 0" result="hardAlpha"/>
<feOffset dy="2"/>
<feGaussianBlur stdDeviation="8"/>
<feComposite in2="hardAlpha" operator="out"/>
<feColorMatrix type="matrix" values="0 0 0 0 0 0 0 0 0 0 0 0 0 0 0 0 0 0 0.12 0"/>
<feBlend mode="normal" in2="BackgroundImageFix" result="effect1_dropShadow_4328_196280"/>
<feColorMatrix in="SourceAlpha" type="matrix" values="0 0 0 0 0 0 0 0 0 0 0 0 0 0 0 0 0 0 127 0" result="hardAlpha"/>
<feOffset dy="1"/>
<feGaussianBlur stdDeviation="1"/>
<feComposite in2="hardAlpha" operator="out"/>
<feColorMatrix type="matrix" values="0 0 0 0 0 0 0 0 0 0 0 0 0 0 0 0 0 0 0.04 0"/>
<feBlend mode="normal" in2="effect1_dropShadow_4328_196280" result="effect2_dropShadow_4328_196280"/>
<feBlend mode="normal" in="SourceGraphic" in2="effect2_dropShadow_4328_196280" result="shape"/>
</filter>
<filter id="filter1_d_4328_196280" x="53" y="41" width="102" height="75.8361" filterUnits="userSpaceOnUse" color-interpolation-filters="sRGB">
<feFlood flood-opacity="0" result="BackgroundImageFix"/>
<feColorMatrix in="SourceAlpha" type="matrix" values="0 0 0 0 0 0 0 0 0 0 0 0 0 0 0 0 0 0 127 0" result="hardAlpha"/>
<feOffset dy="2"/>
<feGaussianBlur stdDeviation="4"/>
<feComposite in2="hardAlpha" operator="out"/>
<feColorMatrix type="matrix" values="0 0 0 0 0.2 0 0 0 0 0.2 0 0 0 0 0.2 0 0 0 0.08 0"/>
<feBlend mode="normal" in2="BackgroundImageFix" result="effect1_dropShadow_4328_196280"/>
<feBlend mode="normal" in="SourceGraphic" in2="effect1_dropShadow_4328_196280" result="shape"/>
</filter>
<linearGradient id="paint0_linear_4328_196280" x1="185.024" y1="50.0938" x2="185.024" y2="279.841" gradientUnits="userSpaceOnUse">
<stop stop-color="#0891B2"/>
<stop offset="0.645833" stop-color="white"/>
</linearGradient>
<clipPath id="clip0_4328_196280">
<path d="M0 12C0 5.37258 5.37258 0 12 0H372C378.627 0 384 5.37258 384 12V200H0V12Z" fill="white"/>
</clipPath>
</defs>
</svg>
