<?xml version="1.0" encoding="UTF-8"?>
<!DOCTYPE svg PUBLIC "-//W3C//DTD SVG 1.1//EN" "http://www.w3.org/Graphics/SVG/1.1/DTD/svg11.dtd">
<!-- Creator: CorelDRAW 2021 (64-Bit) -->
<svg xmlns="http://www.w3.org/2000/svg" xml:space="preserve" width="1.00466in" height="0.861224in" version="1.1" style="shape-rendering:geometricPrecision; text-rendering:geometricPrecision; image-rendering:optimizeQuality; fill-rule:evenodd; clip-rule:evenodd"
viewBox="0 0 363 311.17"
 xmlns:xlink="http://www.w3.org/1999/xlink"
 xmlns:xodm="http://www.corel.com/coreldraw/odm/2003">
 <defs>
  <style type="text/css">
   <![CDATA[
    .fil0 {fill:#0090E3}
    .fil1 {fill:gray}
    .fil7 {fill:url(#id0)}
    .fil9 {fill:url(#id1)}
    .fil6 {fill:url(#id2)}
    .fil4 {fill:url(#id3)}
    .fil3 {fill:url(#id4)}
    .fil10 {fill:url(#id5)}
    .fil5 {fill:url(#id6)}
    .fil8 {fill:url(#id7)}
    .fil2 {fill:url(#id8)}
   ]]>
  </style>
  <linearGradient id="id0" gradientUnits="userSpaceOnUse" x1="42.96" y1="446.66" x2="227.38" y2="-55.35">
   <stop offset="0" style="stop-opacity:1; stop-color:#1F3477"/>
   <stop offset="1" style="stop-opacity:1; stop-color:black"/>
  </linearGradient>
  <linearGradient id="id1" gradientUnits="userSpaceOnUse" xlink:href="#id0" x1="42.96" y1="446.67" x2="227.38" y2="-55.35">
  </linearGradient>
  <linearGradient id="id2" gradientUnits="userSpaceOnUse" xlink:href="#id0" x1="42.96" y1="446.66" x2="227.38" y2="-55.35">
  </linearGradient>
  <linearGradient id="id3" gradientUnits="userSpaceOnUse" xlink:href="#id0" x1="42.96" y1="446.66" x2="227.38" y2="-55.35">
  </linearGradient>
  <linearGradient id="id4" gradientUnits="userSpaceOnUse" xlink:href="#id0" x1="42.96" y1="446.67" x2="227.38" y2="-55.35">
  </linearGradient>
  <linearGradient id="id5" gradientUnits="userSpaceOnUse" xlink:href="#id0" x1="42.97" y1="446.66" x2="227.37" y2="-55.34">
  </linearGradient>
  <linearGradient id="id6" gradientUnits="userSpaceOnUse" xlink:href="#id0" x1="42.96" y1="446.66" x2="227.38" y2="-55.35">
  </linearGradient>
  <linearGradient id="id7" gradientUnits="userSpaceOnUse" xlink:href="#id0" x1="42.97" y1="446.66" x2="227.37" y2="-55.34">
  </linearGradient>
  <linearGradient id="id8" gradientUnits="userSpaceOnUse" xlink:href="#id0" x1="42.96" y1="446.66" x2="227.38" y2="-55.35">
  </linearGradient>
 </defs>
 <g id="Layer_x0020_1">
  <metadata id="CorelCorpID_0Corel-Layer"/>
  <g id="_2273952248944">
   <path class="fil0" d="M99.3 99.3c2.18,-1.74 4.15,-3.01 6.4,-4.85 20.26,-16.54 42.76,-32.89 63.27,-49.29 4.05,-3.24 8.44,-7.09 13,-9.51 0.6,0.52 1.25,1.09 2.03,1.72 14.94,12.15 96.22,73.44 99.28,78.01l28.13 -14.08c-2.21,-3.31 -12.25,-9.95 -16.07,-13 -28.15,-22.49 -63.99,-48.66 -90.13,-70.26 -3.53,-2.92 -21.3,-17.27 -24.17,-18.04l-20.65 15.96c-6.78,5.03 -13.63,11.24 -20.62,15.93l0 -17.35c-2.34,-1.17 -31.58,-0.47 -36.58,-0.47l0 45.02c0,2.75 -1.14,2.23 -2.88,3.68 -7.88,6.55 -46.7,35.55 -48.54,38.19l27.97 13.47 19.57 -15.14z"/>
   <g>
    <polygon class="fil1" points="184.78,128.5 206.35,128.5 206.35,105.99 184.78,105.99 "/>
    <polygon class="fil1" points="156.64,128.5 178.21,128.5 178.21,105.99 156.64,105.99 "/>
    <path class="fil1" d="M156.64 100.36c0.22,-0.27 1.72,-0.94 2.81,-0.94l18.76 0 0 -21.57 -21.57 0 0 22.51z"/>
    <polygon class="fil1" points="184.78,99.42 206.35,99.42 206.35,77.85 184.78,77.85 "/>
   </g>
   <g>
    <path class="fil2" d="M123.81 183.84c0.35,-4.2 1.37,-5.96 3.45,-8.75 4.3,-5.77 4.65,-5.42 9.26,-9.5 6.44,-5.69 15.31,-18.55 19.01,-21.32 2.24,-1.68 5.14,-2.93 8.23,-3.96 3.79,-1.26 6.05,-0.87 7.88,-3.38 -14.21,-1.18 -18.37,-12.91 -55.68,5.29 -4.19,2.04 -3.86,1.27 -5.73,5.52 -4.6,10.45 -34.15,78.08 -34.26,82.99 3.01,0.7 6.89,2.83 9.68,4.39 3.37,1.89 5.77,3.24 9.08,4.99 4.12,-2.76 8.65,-8.18 12.43,-11.96 4.5,-4.5 6.97,-8.68 15.71,-8.68 7.37,0 15.01,6.28 15.01,16.88 2.93,-0.24 3.33,-0.94 6.57,-0.94 16.54,0 15.47,15.89 17.33,16.02 14.54,1.03 12.61,-1.83 18.09,3.89 5.98,6.25 35.74,37.3 39.62,37.3 8.76,0 12.19,-3.44 12.19,-12.19 0,-4 -25.71,-28.05 -31.66,-34 -5,-5 -9.26,-7.67 -9.61,-11.96 3.95,0.33 4.33,1.9 6.81,4.45l16.88 16.89c11.71,11.71 22.23,27.39 33.37,16.02 8.93,-9.11 -3.25,-18.73 -6.64,-22.12l-22.51 -22.51c-4.58,-4.58 -11.9,-9.81 -7.82,-11.95 2.58,-1.35 5.4,2.92 6.89,4.44l28.14 28.14c3.24,3.24 7.62,9.15 13.37,9.15 7.46,0 12.19,-5.5 12.19,-10.32 0,-7.28 -0.8,-6.87 -8.68,-14.77l-28.7 -27.57c-20.7,-16.52 -6.22,-14.26 -33.09,-23.18 -11.12,-3.69 -17.01,-8.6 -26.95,-0.94 -14.67,11.29 -37.07,17.09 -49.83,3.63z"/>
    <path class="fil3" d="M298.28 216.67c0,-4.64 3.81,-8.44 8.44,-8.44 17.47,0 5.93,27.02 -6.34,14.78 -1.9,-1.9 -2.1,-3.39 -2.1,-6.34zm30.01 0.94c-8.02,0 -10.36,-10.12 -5.49,-14.88 3.7,-3.62 10.19,-3.1 13.08,0.72 3.76,4.99 2.03,14.16 -7.59,14.16zm-68.06 -66.06c1.79,4.5 3.09,7.57 4.96,11.92l30.27 71.03c4.76,-0.4 27.04,-8.84 34.16,-10.86l33.37 -10.71c-0.46,-5.55 -28.41,-71.48 -31.76,-79.86l-10.45 -26.13c-4.25,0.35 -57.99,27.83 -65.66,31.89l5.1 12.72z"/>
    <path class="fil4" d="M55.34 225.11c-7.76,0 -10.62,-10.15 -5.45,-14.83 2.45,-2.21 6.02,-3.18 9.13,-2.07 8.48,3.03 8.13,16.9 -3.68,16.9zm-30.02 -16.88c0,-11.3 17.08,-10.95 17.56,0.12 0.47,10.88 -17.56,13.5 -17.56,-0.12zm42.21 26.26c1.96,-3.7 3.55,-8.21 5.37,-12.45l15.01 -35.64c3.58,-8.34 6.98,-15.97 10.31,-24.39 1.69,-4.28 9.38,-20.9 9.47,-23.76l-65.48 -32.25 -15.94 40.33c-1.78,4.48 -3.76,8.92 -5.5,13.26 -2.43,6.1 -20.31,47.81 -20.77,53.33l34.35 10.67c5.99,2 10.87,3.84 16.9,5.61 5.45,1.6 11.87,3.17 16.28,5.29z"/>
    <path class="fil5" d="M144.45 187.59c8.26,0 15.29,-3.52 20.6,-6.6 17.36,-10.05 9.79,-13.08 34.85,-4.78 19.36,6.41 11.88,2.28 21.73,11.1 0.82,0.73 0.85,0.74 1.52,1.3 8.03,6.77 12.02,11.91 20.45,18.95l19.26 18.25c7.98,7.02 5.24,12.61 23.22,3.98l-34.26 -81.11c-1.92,-4.36 -1.23,-3.05 -5.05,-5.27 -6,-3.49 -21.76,-10.23 -31.04,-10.23 -13.18,0 -8.26,-0.36 -20.74,3.64 -9.72,3.12 -29.55,5.74 -37.05,10.79 -3.55,2.39 -4.91,5.93 -7.64,9.24l-15.47 16.42c-3.09,3.07 -5.9,4.47 -6.33,9.61 3.33,1.76 11.01,4.69 15.94,4.69z"/>
    <path class="fil6" d="M150.08 296.4c6.37,0 12.88,-8.66 16.65,-12.43 4.65,-4.65 11.49,-8.91 11.49,-17.59 0,-4.51 -4.46,-10.32 -13.13,-10.32 -6.48,0 -27.2,20.72 -27.2,27.2 0,8.25 3.31,13.13 12.19,13.13z"/>
    <path class="fil7" d="M132.25 278.58c2.44,0 24.39,-18.74 24.39,-26.26 0,-6.89 -3.46,-10.52 -8.63,-12.08 -9.09,-2.74 -15.07,6.27 -23.02,14.19 -2.96,2.95 -7.74,6.64 -7.74,11.96 0,11.72 8.6,12.19 15.01,12.19z"/>
    <path class="fil8" d="M162.27 301.09c0,6 7.18,11.19 13.54,9.88 6.83,-1.4 22.15,-17.72 23.47,-23.56 1.67,-7.4 -5.75,-13.52 -8.87,-13.52 -10.29,0 -10.19,2.21 -18.06,10.08 -7.93,7.93 -10.08,7.32 -10.08,17.12z"/>
    <path class="fil9" d="M109.74 260.76c6.14,0 24.39,-17.32 24.39,-25.32 0,-4.84 -4.97,-11.26 -10.32,-11.26 -9.46,0 -14.1,6.58 -23.25,16.14 -6.91,7.22 -4.17,20.44 9.18,20.44z"/>
    <path class="fil10" d="M194.16 302.97c11.96,8.01 25.35,-8.07 9.38,-18.76 0,13.38 -7.48,11.64 -9.38,18.76z"/>
   </g>
  </g>
 </g>
</svg>
