<svg width="706" height="368" viewBox="0 0 706 368" fill="none" xmlns="http://www.w3.org/2000/svg">
<g clip-path="url(#clip0_306_2523)">
<mask id="mask0_306_2523" style="mask-type:luminance" maskUnits="userSpaceOnUse" x="0" y="0" width="706" height="368">
<path d="M0 22.08C0 9.88555 9.87771 0 22.0625 0H683.938C696.122 0 706 9.88555 706 22.08V368H0V22.08Z" fill="white"/>
</mask>
<g mask="url(#mask0_306_2523)">
<path d="M0 22.08C0 9.88555 9.87771 0 22.0625 0H683.938C696.122 0 706 9.88555 706 22.08V368H0V22.08Z" fill="#F2F2F2"/>
</g>
<path d="M22.0627 0.920044H683.938C695.614 0.920044 705.081 10.3937 705.081 22.08V367.08H0.919434V22.08C0.919434 10.3937 10.3856 0.920044 22.0627 0.920044Z" stroke="#EAEAEA"/>
<g filter="url(#filter0_d_306_2523)">
<rect x="86" y="43" width="534" height="282" rx="24" fill="white"/>
<rect x="86.5" y="43.5" width="533" height="281" rx="23.5" stroke="#E1E4EA"/>
<line x1="110" y1="106.5" x2="596" y2="106.5" stroke="#E2E4E4"/>
<path d="M149.625 72.4205C149.564 71.8826 149.314 71.4659 148.875 71.1705C148.436 70.8712 147.883 70.7216 147.216 70.7216C146.739 70.7216 146.326 70.7973 145.977 70.9489C145.629 71.0966 145.358 71.3011 145.165 71.5625C144.975 71.8201 144.881 72.1136 144.881 72.4432C144.881 72.7197 144.945 72.9583 145.074 73.1591C145.206 73.3598 145.379 73.5284 145.591 73.6648C145.807 73.7973 146.038 73.9091 146.284 74C146.53 74.0871 146.767 74.1591 146.994 74.2159L148.131 74.5114C148.502 74.6023 148.883 74.7254 149.273 74.8807C149.663 75.036 150.025 75.2405 150.358 75.4943C150.691 75.7481 150.96 76.0625 151.165 76.4375C151.373 76.8125 151.477 77.2614 151.477 77.7841C151.477 78.4432 151.307 79.0284 150.966 79.5398C150.629 80.0511 150.138 80.4545 149.494 80.75C148.854 81.0455 148.08 81.1932 147.17 81.1932C146.299 81.1932 145.545 81.0549 144.909 80.7784C144.273 80.5019 143.775 80.1098 143.415 79.6023C143.055 79.0909 142.856 78.4848 142.818 77.7841H144.58C144.614 78.2045 144.75 78.5549 144.989 78.8352C145.231 79.1117 145.54 79.3182 145.915 79.4545C146.294 79.5871 146.708 79.6534 147.159 79.6534C147.655 79.6534 148.097 79.5758 148.483 79.4205C148.873 79.2614 149.18 79.0417 149.403 78.7614C149.627 78.4773 149.739 78.1458 149.739 77.767C149.739 77.4223 149.64 77.1402 149.443 76.9205C149.25 76.7008 148.987 76.5189 148.653 76.375C148.324 76.2311 147.951 76.1042 147.534 75.9943L146.159 75.6193C145.227 75.3655 144.489 74.9924 143.943 74.5C143.402 74.0076 143.131 73.3561 143.131 72.5455C143.131 71.875 143.313 71.2898 143.676 70.7898C144.04 70.2898 144.532 69.9015 145.153 69.625C145.775 69.3447 146.475 69.2045 147.256 69.2045C148.044 69.2045 148.739 69.3428 149.341 69.6193C149.947 69.8958 150.424 70.2765 150.773 70.7614C151.121 71.2424 151.303 71.7955 151.318 72.4205H149.625ZM157.024 81.1761C156.164 81.1761 155.424 80.9924 154.803 80.625C154.185 80.2538 153.708 79.733 153.371 79.0625C153.038 78.3883 152.871 77.5985 152.871 76.6932C152.871 75.7992 153.038 75.0114 153.371 74.3295C153.708 73.6477 154.178 73.1155 154.78 72.733C155.386 72.3504 156.094 72.1591 156.905 72.1591C157.397 72.1591 157.875 72.2405 158.337 72.4034C158.799 72.5663 159.214 72.822 159.581 73.1705C159.949 73.5189 160.238 73.9716 160.45 74.5284C160.663 75.0814 160.769 75.7538 160.769 76.5455V77.1477H153.831V75.875H159.104C159.104 75.428 159.013 75.0322 158.831 74.6875C158.649 74.339 158.394 74.0644 158.064 73.8636C157.738 73.6629 157.356 73.5625 156.916 73.5625C156.439 73.5625 156.022 73.6799 155.666 73.9148C155.314 74.1458 155.041 74.4489 154.848 74.8239C154.659 75.1951 154.564 75.5985 154.564 76.0341V77.0284C154.564 77.6117 154.666 78.108 154.871 78.517C155.079 78.9261 155.369 79.2386 155.74 79.4545C156.111 79.6667 156.545 79.7727 157.041 79.7727C157.363 79.7727 157.657 79.7273 157.922 79.6364C158.187 79.5417 158.416 79.4015 158.61 79.2159C158.803 79.0303 158.95 78.8011 159.053 78.5284L160.661 78.8182C160.532 79.2917 160.301 79.7064 159.967 80.0625C159.638 80.4148 159.223 80.6894 158.723 80.8864C158.227 81.0795 157.661 81.1761 157.024 81.1761ZM166.154 81.1761C165.309 81.1761 164.582 80.9848 163.972 80.6023C163.366 80.2159 162.9 79.6837 162.574 79.0057C162.248 78.3277 162.086 77.5511 162.086 76.6761C162.086 75.7898 162.252 75.0076 162.586 74.3295C162.919 73.6477 163.389 73.1155 163.995 72.733C164.601 72.3504 165.315 72.1591 166.137 72.1591C166.8 72.1591 167.39 72.2822 167.909 72.5284C168.428 72.7708 168.847 73.1117 169.165 73.5511C169.487 73.9905 169.678 74.5038 169.739 75.0909H168.086C167.995 74.6818 167.786 74.3295 167.461 74.0341C167.139 73.7386 166.707 73.5909 166.165 73.5909C165.692 73.5909 165.277 73.7159 164.921 73.9659C164.568 74.2121 164.294 74.5644 164.097 75.0227C163.9 75.4773 163.801 76.0152 163.801 76.6364C163.801 77.2727 163.898 77.822 164.091 78.2841C164.284 78.7462 164.557 79.1042 164.909 79.358C165.265 79.6117 165.684 79.7386 166.165 79.7386C166.487 79.7386 166.779 79.6799 167.04 79.5625C167.305 79.4413 167.527 79.2689 167.705 79.0455C167.887 78.822 168.014 78.553 168.086 78.2386H169.739C169.678 78.803 169.495 79.3068 169.188 79.75C168.881 80.1932 168.47 80.5417 167.955 80.7955C167.443 81.0492 166.843 81.1761 166.154 81.1761ZM176.908 77.3807V72.2727H178.613V81H176.942V79.4886H176.851C176.651 79.9545 176.329 80.3428 175.885 80.6534C175.446 80.9602 174.899 81.1136 174.243 81.1136C173.683 81.1136 173.186 80.9905 172.755 80.7443C172.327 80.4943 171.99 80.125 171.743 79.6364C171.501 79.1477 171.38 78.5436 171.38 77.8239V72.2727H173.079V77.6193C173.079 78.214 173.243 78.6875 173.573 79.0398C173.902 79.392 174.33 79.5682 174.857 79.5682C175.175 79.5682 175.491 79.4886 175.806 79.3295C176.124 79.1705 176.387 78.9299 176.596 78.608C176.808 78.286 176.912 77.8769 176.908 77.3807ZM180.719 81V72.2727H182.361V73.6591H182.452C182.611 73.1894 182.892 72.8201 183.293 72.5511C183.698 72.2784 184.157 72.142 184.668 72.142C184.774 72.142 184.899 72.1458 185.043 72.1534C185.191 72.161 185.306 72.1705 185.39 72.1818V73.8068C185.322 73.7879 185.2 73.767 185.026 73.7443C184.852 73.7178 184.678 73.7045 184.503 73.7045C184.102 73.7045 183.744 73.7898 183.43 73.9602C183.119 74.1269 182.873 74.3598 182.691 74.6591C182.509 74.9545 182.418 75.2917 182.418 75.6705V81H180.719ZM190.133 81.1761C189.273 81.1761 188.532 80.9924 187.911 80.625C187.294 80.2538 186.816 79.733 186.479 79.0625C186.146 78.3883 185.979 77.5985 185.979 76.6932C185.979 75.7992 186.146 75.0114 186.479 74.3295C186.816 73.6477 187.286 73.1155 187.888 72.733C188.495 72.3504 189.203 72.1591 190.013 72.1591C190.506 72.1591 190.983 72.2405 191.445 72.4034C191.907 72.5663 192.322 72.822 192.69 73.1705C193.057 73.5189 193.347 73.9716 193.559 74.5284C193.771 75.0814 193.877 75.7538 193.877 76.5455V77.1477H186.94V75.875H192.212C192.212 75.428 192.121 75.0322 191.94 74.6875C191.758 74.339 191.502 74.0644 191.173 73.8636C190.847 73.6629 190.464 73.5625 190.025 73.5625C189.548 73.5625 189.131 73.6799 188.775 73.9148C188.423 74.1458 188.15 74.4489 187.957 74.8239C187.767 75.1951 187.673 75.5985 187.673 76.0341V77.0284C187.673 77.6117 187.775 78.108 187.979 78.517C188.188 78.9261 188.477 79.2386 188.849 79.4545C189.22 79.6667 189.654 79.7727 190.15 79.7727C190.472 79.7727 190.765 79.7273 191.031 79.6364C191.296 79.5417 191.525 79.4015 191.718 79.2159C191.911 79.0303 192.059 78.8011 192.161 78.5284L193.769 78.8182C193.64 79.2917 193.409 79.7064 193.076 80.0625C192.746 80.4148 192.332 80.6894 191.832 80.8864C191.335 81.0795 190.769 81.1761 190.133 81.1761ZM199.781 81V69.3636H203.929C204.834 69.3636 205.584 69.5284 206.179 69.858C206.773 70.1875 207.218 70.6383 207.514 71.2102C207.809 71.7784 207.957 72.4186 207.957 73.1307C207.957 73.8466 207.807 74.4905 207.508 75.0625C207.213 75.6307 206.766 76.0814 206.167 76.4148C205.572 76.7443 204.824 76.9091 203.923 76.9091H201.071V75.4205H203.764C204.336 75.4205 204.8 75.322 205.156 75.125C205.512 74.9242 205.773 74.6515 205.94 74.3068C206.107 73.9621 206.19 73.5701 206.19 73.1307C206.19 72.6913 206.107 72.3011 205.94 71.9602C205.773 71.6193 205.51 71.3523 205.15 71.1591C204.794 70.9659 204.324 70.8693 203.741 70.8693H201.536V81H199.781ZM212.164 81.1932C211.611 81.1932 211.111 81.0909 210.664 80.8864C210.217 80.678 209.863 80.3769 209.602 79.983C209.344 79.589 209.216 79.1061 209.216 78.5341C209.216 78.0417 209.31 77.6364 209.5 77.3182C209.689 77 209.945 76.7481 210.267 76.5625C210.589 76.3769 210.949 76.2367 211.346 76.142C211.744 76.0473 212.149 75.9754 212.562 75.9261C213.085 75.8655 213.509 75.8163 213.835 75.7784C214.161 75.7367 214.397 75.6705 214.545 75.5795C214.693 75.4886 214.767 75.3409 214.767 75.1364V75.0966C214.767 74.6004 214.627 74.2159 214.346 73.9432C214.07 73.6705 213.657 73.5341 213.108 73.5341C212.536 73.5341 212.085 73.661 211.755 73.9148C211.43 74.1648 211.204 74.4432 211.079 74.75L209.483 74.3864C209.672 73.8561 209.949 73.428 210.312 73.1023C210.68 72.7727 211.102 72.5341 211.579 72.3864C212.056 72.2348 212.558 72.1591 213.085 72.1591C213.433 72.1591 213.803 72.2008 214.193 72.2841C214.587 72.3636 214.954 72.5114 215.295 72.7273C215.64 72.9432 215.922 73.2519 216.142 73.6534C216.361 74.0511 216.471 74.5682 216.471 75.2045V81H214.812V79.8068H214.744C214.634 80.0265 214.469 80.2424 214.25 80.4545C214.03 80.6667 213.748 80.8428 213.403 80.983C213.058 81.1231 212.646 81.1932 212.164 81.1932ZM212.534 79.8295C213.003 79.8295 213.405 79.7367 213.738 79.5511C214.075 79.3655 214.331 79.1231 214.505 78.8239C214.683 78.5208 214.772 78.197 214.772 77.8523V76.7273C214.712 76.7879 214.594 76.8447 214.42 76.8977C214.25 76.947 214.055 76.9905 213.835 77.0284C213.615 77.0625 213.401 77.0947 213.193 77.125C212.985 77.1515 212.81 77.1742 212.67 77.1932C212.341 77.2348 212.039 77.3049 211.767 77.4034C211.498 77.5019 211.282 77.6439 211.119 77.8295C210.96 78.0114 210.88 78.2538 210.88 78.5568C210.88 78.9773 211.036 79.2955 211.346 79.5114C211.657 79.7235 212.053 79.8295 212.534 79.8295ZM219.319 84.2727C219.066 84.2727 218.835 84.2519 218.626 84.2102C218.418 84.1723 218.263 84.1307 218.16 84.0852L218.569 82.6932C218.88 82.7765 219.157 82.8125 219.399 82.8011C219.641 82.7898 219.855 82.6989 220.041 82.5284C220.23 82.358 220.397 82.0795 220.541 81.6932L220.751 81.1136L217.558 72.2727H219.376L221.586 79.0455H221.677L223.888 72.2727H225.711L222.115 82.1648C221.948 82.6193 221.736 83.0038 221.479 83.3182C221.221 83.6364 220.914 83.875 220.558 84.0341C220.202 84.1932 219.789 84.2727 219.319 84.2727ZM227.132 81V72.2727H228.763V73.6932H228.871C229.052 73.2121 229.35 72.8371 229.763 72.5682C230.176 72.2955 230.67 72.1591 231.246 72.1591C231.829 72.1591 232.318 72.2955 232.712 72.5682C233.109 72.8409 233.403 73.2159 233.592 73.6932H233.683C233.892 73.2273 234.223 72.8561 234.677 72.5795C235.132 72.2992 235.674 72.1591 236.302 72.1591C237.094 72.1591 237.74 72.4072 238.24 72.9034C238.744 73.3996 238.996 74.1477 238.996 75.1477V81H237.297V75.3068C237.297 74.7159 237.136 74.2879 236.814 74.0227C236.492 73.7576 236.107 73.625 235.66 73.625C235.107 73.625 234.677 73.7955 234.371 74.1364C234.064 74.4735 233.91 74.9072 233.91 75.4375V81H232.217V75.1989C232.217 74.7254 232.07 74.3447 231.774 74.0568C231.479 73.7689 231.094 73.625 230.621 73.625C230.299 73.625 230.001 73.7102 229.729 73.8807C229.46 74.0473 229.242 74.2803 229.075 74.5795C228.912 74.8788 228.831 75.2254 228.831 75.6193V81H227.132ZM244.858 81.1761C243.998 81.1761 243.258 80.9924 242.636 80.625C242.019 80.2538 241.542 79.733 241.205 79.0625C240.871 78.3883 240.705 77.5985 240.705 76.6932C240.705 75.7992 240.871 75.0114 241.205 74.3295C241.542 73.6477 242.011 73.1155 242.614 72.733C243.22 72.3504 243.928 72.1591 244.739 72.1591C245.231 72.1591 245.708 72.2405 246.171 72.4034C246.633 72.5663 247.047 72.822 247.415 73.1705C247.782 73.5189 248.072 73.9716 248.284 74.5284C248.496 75.0814 248.602 75.7538 248.602 76.5455V77.1477H241.665V75.875H246.938C246.938 75.428 246.847 75.0322 246.665 74.6875C246.483 74.339 246.227 74.0644 245.898 73.8636C245.572 73.6629 245.189 73.5625 244.75 73.5625C244.273 73.5625 243.856 73.6799 243.5 73.9148C243.148 74.1458 242.875 74.4489 242.682 74.8239C242.493 75.1951 242.398 75.5985 242.398 76.0341V77.0284C242.398 77.6117 242.5 78.108 242.705 78.517C242.913 78.9261 243.203 79.2386 243.574 79.4545C243.945 79.6667 244.379 79.7727 244.875 79.7727C245.197 79.7727 245.491 79.7273 245.756 79.6364C246.021 79.5417 246.25 79.4015 246.443 79.2159C246.636 79.0303 246.784 78.8011 246.886 78.5284L248.494 78.8182C248.366 79.2917 248.135 79.7064 247.801 80.0625C247.472 80.4148 247.057 80.6894 246.557 80.8864C246.061 81.0795 245.494 81.1761 244.858 81.1761ZM252.01 75.8182V81H250.311V72.2727H251.942V73.6932H252.05C252.251 73.2311 252.565 72.8598 252.993 72.5795C253.425 72.2992 253.968 72.1591 254.624 72.1591C255.218 72.1591 255.739 72.2841 256.186 72.5341C256.633 72.7803 256.98 73.1477 257.226 73.6364C257.472 74.125 257.595 74.7292 257.595 75.4489V81H255.897V75.6534C255.897 75.0208 255.732 74.5265 255.402 74.1705C255.073 73.8106 254.62 73.6307 254.044 73.6307C253.65 73.6307 253.3 73.7159 252.993 73.8864C252.69 74.0568 252.45 74.3068 252.272 74.6364C252.097 74.9621 252.01 75.3561 252.01 75.8182ZM263.772 72.2727V73.6364H259.005V72.2727H263.772ZM260.283 70.1818H261.982V78.4375C261.982 78.767 262.031 79.0152 262.13 79.1818C262.228 79.3447 262.355 79.4564 262.51 79.517C262.669 79.5739 262.842 79.6023 263.027 79.6023C263.164 79.6023 263.283 79.5928 263.385 79.5739C263.488 79.5549 263.567 79.5398 263.624 79.5284L263.931 80.9318C263.832 80.9697 263.692 81.0076 263.51 81.0455C263.328 81.0871 263.101 81.1098 262.828 81.1136C262.382 81.1212 261.965 81.0417 261.578 80.875C261.192 80.7083 260.88 80.4508 260.641 80.1023C260.402 79.7538 260.283 79.3163 260.283 78.7898V70.1818Z" fill="#1D2020"/>
<path fill-rule="evenodd" clip-rule="evenodd" d="M592.749 75.75L575.249 75.75L575.249 74.25L592.749 74.25L592.749 75.75Z" fill="#717784"/>
<path fill-rule="evenodd" clip-rule="evenodd" d="M591.999 74.25C588.472 74.25 585.589 77.3521 585.589 80.66L585.589 81.41L587.089 81.41L587.089 80.66C587.089 78.1485 589.332 75.75 591.999 75.75L592.749 75.75L592.749 74.25L591.999 74.25Z" fill="#717784"/>
<path fill-rule="evenodd" clip-rule="evenodd" d="M591.999 75.75C588.472 75.75 585.589 72.6479 585.589 69.34L585.589 68.59L587.089 68.59L587.089 69.34C587.089 71.8515 589.332 74.25 591.999 74.25L592.749 74.25L592.749 75.75L591.999 75.75Z" fill="#717784"/>
<path d="M110.959 219V210.273H114.07C114.746 210.273 115.307 210.389 115.753 210.622C116.202 210.855 116.537 211.178 116.759 211.589C116.98 211.999 117.091 212.472 117.091 213.009C117.091 213.543 116.979 214.013 116.754 214.419C116.533 214.822 116.197 215.136 115.749 215.361C115.303 215.585 114.741 215.697 114.065 215.697H111.709V214.564H113.946C114.372 214.564 114.719 214.503 114.986 214.381C115.256 214.259 115.453 214.081 115.578 213.848C115.703 213.615 115.766 213.335 115.766 213.009C115.766 212.679 115.702 212.393 115.574 212.152C115.449 211.911 115.251 211.726 114.982 211.598C114.714 211.467 114.364 211.402 113.929 211.402H112.276V219H110.959ZM115.267 215.062L117.423 219H115.923L113.81 215.062H115.267ZM118.591 219V212.455H119.865V219H118.591ZM119.234 211.445C119.013 211.445 118.822 211.371 118.663 211.223C118.507 211.072 118.429 210.893 118.429 210.686C118.429 210.476 118.507 210.297 118.663 210.149C118.822 209.999 119.013 209.923 119.234 209.923C119.456 209.923 119.645 209.999 119.801 210.149C119.96 210.297 120.04 210.476 120.04 210.686C120.04 210.893 119.96 211.072 119.801 211.223C119.645 211.371 119.456 211.445 119.234 211.445ZM126.484 214.053L125.329 214.257C125.281 214.109 125.204 213.969 125.099 213.835C124.997 213.702 124.858 213.592 124.681 213.507C124.505 213.422 124.285 213.379 124.021 213.379C123.66 213.379 123.359 213.46 123.118 213.622C122.876 213.781 122.755 213.987 122.755 214.24C122.755 214.459 122.836 214.635 122.998 214.768C123.16 214.902 123.422 215.011 123.782 215.097L124.822 215.335C125.424 215.474 125.873 215.689 126.169 215.979C126.464 216.268 126.612 216.645 126.612 217.108C126.612 217.5 126.498 217.849 126.271 218.156C126.047 218.46 125.733 218.699 125.329 218.872C124.929 219.045 124.464 219.132 123.936 219.132C123.203 219.132 122.605 218.976 122.142 218.663C121.679 218.348 121.395 217.901 121.289 217.321L122.521 217.134C122.598 217.455 122.755 217.697 122.994 217.862C123.233 218.024 123.544 218.105 123.927 218.105C124.345 218.105 124.679 218.018 124.929 217.845C125.179 217.669 125.304 217.455 125.304 217.202C125.304 216.997 125.227 216.825 125.074 216.686C124.923 216.547 124.691 216.442 124.379 216.371L123.271 216.128C122.66 215.989 122.208 215.767 121.916 215.463C121.626 215.159 121.481 214.774 121.481 214.308C121.481 213.922 121.589 213.584 121.805 213.294C122.021 213.004 122.319 212.778 122.7 212.616C123.081 212.452 123.517 212.369 124.008 212.369C124.716 212.369 125.272 212.523 125.679 212.83C126.085 213.134 126.353 213.541 126.484 214.053ZM129.185 216.78L129.176 215.224H129.398L132.006 212.455H133.531L130.557 215.608H130.357L129.185 216.78ZM128.013 219V210.273H129.287V219H128.013ZM132.146 219L129.803 215.889L130.68 214.999L133.71 219H132.146ZM137.971 219V210.273H139.287V217.866H143.242V219H137.971ZM147.463 219.132C146.818 219.132 146.262 218.994 145.797 218.719C145.333 218.44 144.975 218.05 144.723 217.547C144.473 217.041 144.348 216.449 144.348 215.77C144.348 215.099 144.473 214.509 144.723 213.997C144.975 213.486 145.328 213.087 145.779 212.8C146.234 212.513 146.765 212.369 147.373 212.369C147.743 212.369 148.1 212.43 148.447 212.553C148.794 212.675 149.105 212.866 149.38 213.128C149.656 213.389 149.873 213.729 150.032 214.146C150.191 214.561 150.271 215.065 150.271 215.659V216.111H145.068V215.156H149.022C149.022 214.821 148.954 214.524 148.818 214.266C148.681 214.004 148.49 213.798 148.243 213.648C147.998 213.497 147.711 213.422 147.382 213.422C147.024 213.422 146.711 213.51 146.444 213.686C146.18 213.859 145.975 214.087 145.831 214.368C145.689 214.646 145.618 214.949 145.618 215.276V216.021C145.618 216.459 145.694 216.831 145.848 217.138C146.004 217.445 146.221 217.679 146.5 217.841C146.778 218 147.103 218.08 147.475 218.08C147.717 218.08 147.937 218.045 148.136 217.977C148.335 217.906 148.507 217.801 148.652 217.662C148.797 217.523 148.907 217.351 148.984 217.146L150.19 217.364C150.093 217.719 149.92 218.03 149.67 218.297C149.423 218.561 149.112 218.767 148.737 218.915C148.365 219.06 147.94 219.132 147.463 219.132ZM157.097 212.455L154.723 219H153.359L150.982 212.455H152.349L154.007 217.491H154.075L155.729 212.455H157.097ZM160.892 219.132C160.248 219.132 159.692 218.994 159.226 218.719C158.763 218.44 158.405 218.05 158.152 217.547C157.902 217.041 157.777 216.449 157.777 215.77C157.777 215.099 157.902 214.509 158.152 213.997C158.405 213.486 158.757 213.087 159.209 212.8C159.664 212.513 160.195 212.369 160.803 212.369C161.172 212.369 161.53 212.43 161.877 212.553C162.223 212.675 162.534 212.866 162.81 213.128C163.086 213.389 163.303 213.729 163.462 214.146C163.621 214.561 163.701 215.065 163.701 215.659V216.111H158.498V215.156H162.452C162.452 214.821 162.384 214.524 162.248 214.266C162.111 214.004 161.919 213.798 161.672 213.648C161.428 213.497 161.141 213.422 160.811 213.422C160.453 213.422 160.141 213.51 159.874 213.686C159.61 213.859 159.405 214.087 159.26 214.368C159.118 214.646 159.047 214.949 159.047 215.276V216.021C159.047 216.459 159.124 216.831 159.277 217.138C159.434 217.445 159.651 217.679 159.929 217.841C160.208 218 160.533 218.08 160.905 218.08C161.147 218.08 161.367 218.045 161.566 217.977C161.765 217.906 161.936 217.801 162.081 217.662C162.226 217.523 162.337 217.351 162.414 217.146L163.62 217.364C163.523 217.719 163.35 218.03 163.1 218.297C162.853 218.561 162.542 218.767 162.167 218.915C161.794 219.06 161.37 219.132 160.892 219.132ZM166.388 210.273V219H165.114V210.273H166.388Z" fill="black"/>
<path d="M111.415 275H110.307L113.511 266.273H114.602L117.807 275H116.699L114.091 267.653H114.023L111.415 275ZM111.824 271.591H116.29V272.528H111.824V271.591ZM120.036 266.273V275H119.03V266.273H120.036ZM124.622 275.136C123.991 275.136 123.447 274.997 122.99 274.719C122.535 274.438 122.184 274.045 121.937 273.543C121.693 273.037 121.571 272.449 121.571 271.778C121.571 271.108 121.693 270.517 121.937 270.006C122.184 269.491 122.528 269.091 122.968 268.804C123.412 268.514 123.929 268.369 124.52 268.369C124.86 268.369 125.197 268.426 125.529 268.54C125.862 268.653 126.164 268.838 126.437 269.094C126.71 269.347 126.927 269.682 127.089 270.099C127.251 270.517 127.332 271.031 127.332 271.642V272.068H122.287V271.199H126.309C126.309 270.83 126.235 270.5 126.088 270.21C125.943 269.92 125.735 269.692 125.466 269.524C125.199 269.357 124.883 269.273 124.52 269.273C124.119 269.273 123.772 269.372 123.48 269.571C123.19 269.767 122.967 270.023 122.811 270.338C122.654 270.653 122.576 270.991 122.576 271.352V271.932C122.576 272.426 122.662 272.845 122.832 273.189C123.005 273.53 123.245 273.79 123.552 273.969C123.859 274.145 124.216 274.233 124.622 274.233C124.886 274.233 125.125 274.196 125.338 274.122C125.554 274.045 125.74 273.932 125.896 273.781C126.052 273.628 126.173 273.437 126.258 273.21L127.23 273.483C127.127 273.812 126.956 274.102 126.714 274.352C126.473 274.599 126.174 274.793 125.819 274.932C125.464 275.068 125.065 275.136 124.622 275.136ZM128.862 275V268.455H129.833V269.443H129.902C130.021 269.119 130.237 268.857 130.549 268.655C130.862 268.453 131.214 268.352 131.606 268.352C131.68 268.352 131.772 268.354 131.883 268.357C131.994 268.359 132.078 268.364 132.135 268.369V269.392C132.1 269.384 132.022 269.371 131.9 269.354C131.781 269.334 131.654 269.324 131.521 269.324C131.203 269.324 130.919 269.391 130.669 269.524C130.422 269.655 130.225 269.837 130.081 270.07C129.939 270.3 129.868 270.562 129.868 270.858V275H128.862ZM136.583 268.455V269.307H133.191V268.455H136.583ZM134.18 266.886H135.186V273.125C135.186 273.409 135.227 273.622 135.309 273.764C135.395 273.903 135.502 273.997 135.633 274.045C135.767 274.091 135.907 274.114 136.055 274.114C136.166 274.114 136.257 274.108 136.328 274.097C136.399 274.082 136.456 274.071 136.498 274.062L136.703 274.966C136.635 274.991 136.539 275.017 136.417 275.043C136.295 275.071 136.14 275.085 135.953 275.085C135.669 275.085 135.39 275.024 135.118 274.902C134.848 274.78 134.623 274.594 134.444 274.344C134.268 274.094 134.18 273.778 134.18 273.398V266.886Z" fill="#717784"/>
<path d="M345.103 268.455C345.052 268.023 344.844 267.688 344.481 267.449C344.117 267.21 343.671 267.091 343.143 267.091C342.756 267.091 342.418 267.153 342.129 267.278C341.842 267.403 341.617 267.575 341.455 267.794C341.296 268.013 341.217 268.261 341.217 268.54C341.217 268.773 341.272 268.973 341.383 269.141C341.496 269.305 341.641 269.443 341.817 269.554C341.994 269.662 342.178 269.751 342.371 269.822C342.565 269.891 342.742 269.946 342.904 269.989L343.79 270.227C344.018 270.287 344.271 270.369 344.549 270.474C344.83 270.58 345.099 270.723 345.354 270.905C345.613 271.084 345.826 271.314 345.994 271.595C346.161 271.876 346.245 272.222 346.245 272.631C346.245 273.102 346.121 273.528 345.874 273.909C345.63 274.29 345.272 274.592 344.8 274.817C344.332 275.041 343.762 275.153 343.092 275.153C342.467 275.153 341.925 275.053 341.468 274.851C341.013 274.649 340.656 274.368 340.394 274.007C340.136 273.646 339.989 273.227 339.955 272.75H341.046C341.075 273.08 341.185 273.352 341.379 273.568C341.575 273.781 341.822 273.94 342.12 274.045C342.421 274.148 342.745 274.199 343.092 274.199C343.495 274.199 343.857 274.134 344.178 274.003C344.499 273.869 344.754 273.685 344.941 273.449C345.129 273.21 345.222 272.932 345.222 272.614C345.222 272.324 345.141 272.088 344.979 271.906C344.817 271.724 344.604 271.577 344.34 271.463C344.076 271.349 343.79 271.25 343.484 271.165L342.41 270.858C341.728 270.662 341.188 270.382 340.79 270.018C340.393 269.655 340.194 269.179 340.194 268.591C340.194 268.102 340.326 267.676 340.59 267.312C340.857 266.946 341.215 266.662 341.664 266.46C342.116 266.256 342.62 266.153 343.177 266.153C343.739 266.153 344.239 266.254 344.677 266.456C345.114 266.655 345.461 266.928 345.717 267.274C345.975 267.621 346.112 268.014 346.126 268.455H345.103ZM349.772 275.153C349.358 275.153 348.981 275.075 348.643 274.919C348.305 274.76 348.037 274.531 347.838 274.233C347.639 273.932 347.539 273.568 347.539 273.142C347.539 272.767 347.613 272.463 347.761 272.23C347.909 271.994 348.106 271.81 348.353 271.676C348.6 271.543 348.873 271.443 349.172 271.378C349.473 271.31 349.775 271.256 350.079 271.216C350.477 271.165 350.799 271.126 351.047 271.101C351.297 271.072 351.478 271.026 351.592 270.96C351.708 270.895 351.767 270.781 351.767 270.619V270.585C351.767 270.165 351.652 269.838 351.422 269.605C351.194 269.372 350.849 269.256 350.386 269.256C349.906 269.256 349.529 269.361 349.257 269.571C348.984 269.781 348.792 270.006 348.681 270.244L347.727 269.903C347.897 269.506 348.125 269.196 348.409 268.974C348.696 268.75 349.008 268.594 349.346 268.506C349.687 268.415 350.022 268.369 350.352 268.369C350.562 268.369 350.804 268.395 351.076 268.446C351.352 268.494 351.618 268.595 351.873 268.749C352.132 268.902 352.346 269.134 352.517 269.443C352.687 269.753 352.772 270.168 352.772 270.688V275H351.767V274.114H351.716C351.647 274.256 351.534 274.408 351.375 274.57C351.216 274.732 351.004 274.869 350.74 274.983C350.475 275.097 350.153 275.153 349.772 275.153ZM349.926 274.25C350.324 274.25 350.659 274.172 350.931 274.016C351.207 273.859 351.414 273.658 351.554 273.411C351.696 273.163 351.767 272.903 351.767 272.631V271.71C351.724 271.761 351.63 271.808 351.485 271.851C351.343 271.891 351.179 271.926 350.991 271.957C350.806 271.986 350.626 272.011 350.45 272.034C350.277 272.054 350.136 272.071 350.028 272.085C349.767 272.119 349.522 272.175 349.295 272.251C349.071 272.325 348.889 272.437 348.75 272.588C348.613 272.736 348.545 272.937 348.545 273.193C348.545 273.543 348.674 273.807 348.933 273.986C349.194 274.162 349.525 274.25 349.926 274.25ZM357.523 268.455V269.307H353.994V268.455H357.523ZM355.051 275V267.551C355.051 267.176 355.139 266.864 355.315 266.614C355.491 266.364 355.72 266.176 356.001 266.051C356.283 265.926 356.58 265.864 356.892 265.864C357.139 265.864 357.341 265.884 357.497 265.923C357.653 265.963 357.77 266 357.847 266.034L357.557 266.903C357.506 266.886 357.435 266.865 357.344 266.839C357.256 266.814 357.139 266.801 356.994 266.801C356.662 266.801 356.422 266.885 356.274 267.053C356.129 267.22 356.057 267.466 356.057 267.79V275H355.051ZM361.407 275.136C360.776 275.136 360.232 274.997 359.775 274.719C359.32 274.438 358.969 274.045 358.722 273.543C358.478 273.037 358.356 272.449 358.356 271.778C358.356 271.108 358.478 270.517 358.722 270.006C358.969 269.491 359.313 269.091 359.754 268.804C360.197 268.514 360.714 268.369 361.305 268.369C361.646 268.369 361.982 268.426 362.315 268.54C362.647 268.653 362.95 268.838 363.222 269.094C363.495 269.347 363.712 269.682 363.874 270.099C364.036 270.517 364.117 271.031 364.117 271.642V272.068H359.072V271.199H363.094C363.094 270.83 363.021 270.5 362.873 270.21C362.728 269.92 362.521 269.692 362.251 269.524C361.984 269.357 361.668 269.273 361.305 269.273C360.904 269.273 360.558 269.372 360.265 269.571C359.975 269.767 359.752 270.023 359.596 270.338C359.44 270.653 359.362 270.991 359.362 271.352V271.932C359.362 272.426 359.447 272.845 359.617 273.189C359.79 273.53 360.031 273.79 360.337 273.969C360.644 274.145 361.001 274.233 361.407 274.233C361.671 274.233 361.91 274.196 362.123 274.122C362.339 274.045 362.525 273.932 362.681 273.781C362.837 273.628 362.958 273.437 363.043 273.21L364.015 273.483C363.913 273.812 363.741 274.102 363.499 274.352C363.258 274.599 362.96 274.793 362.604 274.932C362.249 275.068 361.85 275.136 361.407 275.136Z" fill="#717784"/>
<path d="M571.639 275V266.273H574.69C575.298 266.273 575.799 266.378 576.194 266.588C576.589 266.795 576.883 267.075 577.076 267.428C577.27 267.777 577.366 268.165 577.366 268.591C577.366 268.966 577.299 269.276 577.166 269.52C577.035 269.764 576.862 269.957 576.646 270.099C576.433 270.241 576.201 270.347 575.951 270.415V270.5C576.218 270.517 576.487 270.611 576.757 270.781C577.027 270.952 577.252 271.196 577.434 271.514C577.616 271.832 577.707 272.222 577.707 272.682C577.707 273.119 577.608 273.513 577.409 273.862C577.21 274.212 576.896 274.489 576.467 274.693C576.038 274.898 575.48 275 574.792 275H571.639ZM572.696 274.062H574.792C575.483 274.062 575.973 273.929 576.262 273.662C576.555 273.392 576.701 273.065 576.701 272.682C576.701 272.386 576.626 272.114 576.475 271.864C576.325 271.611 576.11 271.409 575.832 271.259C575.554 271.105 575.224 271.028 574.843 271.028H572.696V274.062ZM572.696 270.108H574.656C574.974 270.108 575.261 270.045 575.517 269.92C575.775 269.795 575.98 269.619 576.13 269.392C576.284 269.165 576.36 268.898 576.36 268.591C576.36 268.207 576.227 267.882 575.96 267.615C575.693 267.345 575.27 267.21 574.69 267.21H572.696V270.108ZM582.051 275.136C581.421 275.136 580.877 274.997 580.419 274.719C579.965 274.438 579.614 274.045 579.367 273.543C579.123 273.037 579 272.449 579 271.778C579 271.108 579.123 270.517 579.367 270.006C579.614 269.491 579.958 269.091 580.398 268.804C580.841 268.514 581.358 268.369 581.949 268.369C582.29 268.369 582.627 268.426 582.959 268.54C583.292 268.653 583.594 268.838 583.867 269.094C584.14 269.347 584.357 269.682 584.519 270.099C584.681 270.517 584.762 271.031 584.762 271.642V272.068H579.716V271.199H583.739C583.739 270.83 583.665 270.5 583.517 270.21C583.373 269.92 583.165 269.692 582.895 269.524C582.628 269.357 582.313 269.273 581.949 269.273C581.549 269.273 581.202 269.372 580.909 269.571C580.62 269.767 580.397 270.023 580.24 270.338C580.084 270.653 580.006 270.991 580.006 271.352V271.932C580.006 272.426 580.091 272.845 580.262 273.189C580.435 273.53 580.675 273.79 580.982 273.969C581.289 274.145 581.645 274.233 582.051 274.233C582.316 274.233 582.554 274.196 582.767 274.122C582.983 274.045 583.169 273.932 583.326 273.781C583.482 273.628 583.603 273.437 583.688 273.21L584.659 273.483C584.557 273.812 584.385 274.102 584.144 274.352C583.902 274.599 583.604 274.793 583.249 274.932C582.894 275.068 582.495 275.136 582.051 275.136ZM590.928 269.92L590.025 270.176C589.968 270.026 589.884 269.879 589.773 269.737C589.665 269.592 589.517 269.473 589.33 269.379C589.142 269.286 588.902 269.239 588.61 269.239C588.209 269.239 587.875 269.331 587.608 269.516C587.344 269.697 587.212 269.929 587.212 270.21C587.212 270.46 587.303 270.658 587.485 270.803C587.667 270.947 587.951 271.068 588.337 271.165L589.309 271.403C589.894 271.545 590.33 271.763 590.617 272.055C590.904 272.345 591.047 272.719 591.047 273.176C591.047 273.551 590.939 273.886 590.723 274.182C590.51 274.477 590.212 274.71 589.828 274.881C589.445 275.051 588.999 275.136 588.49 275.136C587.823 275.136 587.27 274.991 586.833 274.702C586.395 274.412 586.118 273.989 586.002 273.432L586.956 273.193C587.047 273.545 587.219 273.81 587.472 273.986C587.728 274.162 588.061 274.25 588.473 274.25C588.942 274.25 589.314 274.151 589.59 273.952C589.868 273.75 590.007 273.509 590.007 273.227C590.007 273 589.928 272.81 589.769 272.656C589.61 272.5 589.365 272.384 589.036 272.307L587.945 272.051C587.346 271.909 586.905 271.689 586.624 271.391C586.346 271.089 586.206 270.713 586.206 270.261C586.206 269.892 586.31 269.565 586.517 269.281C586.728 268.997 587.013 268.774 587.374 268.612C587.738 268.45 588.15 268.369 588.61 268.369C589.257 268.369 589.766 268.511 590.135 268.795C590.507 269.08 590.772 269.455 590.928 269.92ZM595.408 268.455V269.307H592.016V268.455H595.408ZM593.004 266.886H594.01V273.125C594.01 273.409 594.051 273.622 594.134 273.764C594.219 273.903 594.327 273.997 594.457 274.045C594.591 274.091 594.732 274.114 594.879 274.114C594.99 274.114 595.081 274.108 595.152 274.097C595.223 274.082 595.28 274.071 595.322 274.062L595.527 274.966C595.459 274.991 595.364 275.017 595.241 275.043C595.119 275.071 594.964 275.085 594.777 275.085C594.493 275.085 594.214 275.024 593.942 274.902C593.672 274.78 593.447 274.594 593.268 274.344C593.092 274.094 593.004 273.778 593.004 273.398V266.886Z" fill="#717784"/>
<rect x="110.5" y="233.5" width="485" height="19" rx="9.5" fill="#F5F7FA" stroke="#E2E4E4"/>
<path d="M110 243C110 237.477 114.477 233 120 233H470V253H120C114.477 253 110 248.523 110 243Z" fill="url(#paint0_linear_306_2523)"/>
<circle cx="120" cy="243" r="4" fill="white"/>
<circle cx="586" cy="243" r="4" fill="#99A0AE"/>
<circle cx="353" cy="243" r="4" fill="white"/>
<circle opacity="0.3" cx="236" cy="243" r="4" fill="white"/>
<g filter="url(#filter1_d_306_2523)">
<rect x="454" y="227" width="32" height="32" rx="8" fill="white"/>
<rect x="454.5" y="227.5" width="31" height="31" rx="7.5" stroke="#E2E4E4"/>
</g>
<path fill-rule="evenodd" clip-rule="evenodd" d="M124.101 76.5C124.101 75.292 123.16 74.3126 122.001 74.3126C120.841 74.3126 119.901 75.292 119.901 76.5C119.901 77.7081 120.841 78.6874 122.001 78.6874C123.16 78.6874 124.101 77.7081 124.101 76.5ZM122.001 72.7501C123.989 72.7501 125.601 74.429 125.601 76.5C125.601 78.571 123.989 80.2499 122.001 80.2499C120.013 80.2499 118.401 78.571 118.401 76.5C118.401 74.429 120.013 72.7501 122.001 72.7501Z" fill="black"/>
<path fill-rule="evenodd" clip-rule="evenodd" d="M116.567 66.5898L127.433 66.5898L132.866 76.0001L127.433 85.4104H116.567L111.134 76.0001L116.567 66.5898ZM117.433 68.0898L112.866 76.0001L117.433 83.9104H126.567L131.134 76.0001L126.567 68.0898L117.433 68.0898Z" fill="black"/>
<path d="M113.808 152V128.16H118.288L128.24 149.664L127.056 149.888V128.16H130.64V152H126.16L116.272 130.368L117.392 130.112V152H113.808ZM111.248 141.312V138.816H133.2V141.312H111.248ZM140.07 152V131.36H135.493V128.16H143.814V152H140.07ZM158.457 152.384C156.558 152.384 154.894 151.872 153.465 150.848C152.035 149.803 150.915 148.363 150.105 146.528C149.315 144.672 148.921 142.517 148.921 140.064C148.921 137.589 149.315 135.435 150.105 133.6C150.915 131.765 152.025 130.336 153.433 129.312C154.862 128.288 156.526 127.776 158.425 127.776C160.323 127.776 161.977 128.288 163.385 129.312C164.814 130.336 165.923 131.776 166.713 133.632C167.523 135.467 167.929 137.611 167.929 140.064C167.929 142.517 167.534 144.672 166.745 146.528C165.955 148.363 164.846 149.803 163.417 150.848C162.009 151.872 160.355 152.384 158.457 152.384ZM158.457 148.928C159.63 148.928 160.643 148.565 161.497 147.84C162.35 147.115 163.011 146.091 163.481 144.768C163.95 143.445 164.185 141.877 164.185 140.064C164.185 138.251 163.95 136.683 163.481 135.36C163.011 134.037 162.35 133.013 161.497 132.288C160.643 131.563 159.619 131.2 158.425 131.2C157.251 131.2 156.238 131.563 155.385 132.288C154.531 133.013 153.87 134.037 153.401 135.36C152.931 136.683 152.697 138.251 152.697 140.064C152.697 141.856 152.931 143.424 153.401 144.768C153.87 146.091 154.531 147.115 155.385 147.84C156.259 148.565 157.283 148.928 158.457 148.928ZM179.955 152.384C178.291 152.384 176.83 152.064 175.571 151.424C174.334 150.763 173.374 149.888 172.691 148.8C172.008 147.691 171.667 146.464 171.667 145.12C171.667 143.584 172.083 142.261 172.915 141.152C173.768 140.021 174.963 139.2 176.499 138.688L176.339 139.648C175.208 139.221 174.312 138.507 173.651 137.504C173.011 136.48 172.691 135.36 172.691 134.144C172.691 132.928 173 131.84 173.619 130.88C174.259 129.92 175.123 129.163 176.211 128.608C177.32 128.053 178.568 127.776 179.955 127.776C181.363 127.776 182.611 128.053 183.699 128.608C184.787 129.141 185.64 129.888 186.259 130.848C186.899 131.808 187.219 132.907 187.219 134.144C187.219 135.403 186.888 136.533 186.227 137.536C185.587 138.517 184.712 139.221 183.603 139.648L183.443 138.688C184.979 139.221 186.174 140.043 187.027 141.152C187.88 142.261 188.307 143.584 188.307 145.12C188.307 146.464 187.955 147.691 187.251 148.8C186.568 149.888 185.598 150.763 184.339 151.424C183.08 152.064 181.619 152.384 179.955 152.384ZM179.955 149.184C180.872 149.184 181.672 149.013 182.355 148.672C183.038 148.309 183.571 147.819 183.955 147.2C184.339 146.581 184.531 145.856 184.531 145.024C184.531 144.192 184.339 143.467 183.955 142.848C183.571 142.229 183.038 141.749 182.355 141.408C181.672 141.067 180.872 140.896 179.955 140.896C179.059 140.896 178.27 141.067 177.587 141.408C176.904 141.749 176.371 142.229 175.987 142.848C175.603 143.467 175.411 144.192 175.411 145.024C175.411 145.856 175.603 146.581 175.987 147.2C176.371 147.819 176.904 148.309 177.587 148.672C178.27 149.013 179.059 149.184 179.955 149.184ZM179.955 137.696C180.638 137.696 181.235 137.557 181.747 137.28C182.28 136.981 182.696 136.576 182.995 136.064C183.294 135.552 183.443 134.976 183.443 134.336C183.443 133.675 183.294 133.099 182.995 132.608C182.696 132.096 182.28 131.701 181.747 131.424C181.235 131.125 180.638 130.976 179.955 130.976C179.294 130.976 178.696 131.125 178.163 131.424C177.63 131.701 177.214 132.096 176.915 132.608C176.616 133.099 176.467 133.675 176.467 134.336C176.467 134.976 176.616 135.552 176.915 136.064C177.214 136.576 177.63 136.981 178.163 137.28C178.696 137.557 179.294 137.696 179.955 137.696ZM193.103 156.704V154.944C193.807 154.773 194.351 154.443 194.735 153.952C195.119 153.483 195.353 152.832 195.439 152H193.743V147.84H197.423V150.56C197.423 152.267 197.06 153.643 196.335 154.688C195.609 155.733 194.532 156.405 193.103 156.704ZM210.195 152.384C208.637 152.384 207.251 152.043 206.035 151.36C204.819 150.677 203.859 149.739 203.155 148.544C202.472 147.349 202.131 145.995 202.131 144.48C202.131 143.691 202.216 142.901 202.387 142.112C202.557 141.323 202.856 140.501 203.283 139.648C203.731 138.795 204.328 137.877 205.075 136.896L211.731 128.16H216.243L208.083 138.72L207.443 138.304C207.741 137.963 208.061 137.696 208.403 137.504C208.765 137.312 209.139 137.173 209.523 137.088C209.928 137.003 210.355 136.96 210.803 136.96C212.232 136.96 213.512 137.291 214.643 137.952C215.773 138.613 216.659 139.509 217.299 140.64C217.96 141.771 218.291 143.072 218.291 144.544C218.291 146.037 217.939 147.381 217.235 148.576C216.531 149.749 215.571 150.677 214.355 151.36C213.16 152.043 211.773 152.384 210.195 152.384ZM210.195 149.024C211.027 149.024 211.763 148.832 212.403 148.448C213.043 148.064 213.555 147.541 213.939 146.88C214.323 146.197 214.515 145.429 214.515 144.576C214.515 143.701 214.323 142.933 213.939 142.272C213.576 141.611 213.064 141.099 212.403 140.736C211.763 140.352 211.027 140.16 210.195 140.16C209.384 140.16 208.648 140.352 207.987 140.736C207.347 141.099 206.835 141.611 206.451 142.272C206.067 142.933 205.875 143.701 205.875 144.576C205.875 145.429 206.067 146.197 206.451 146.88C206.835 147.541 207.347 148.064 207.987 148.448C208.648 148.832 209.384 149.024 210.195 149.024ZM232.389 152V146.624H221.029V143.488L232.229 128.16H235.973V143.488H239.269V146.624H235.973V152H232.389ZM223.813 144.864L223.205 143.488H232.389V131.168L233.413 131.488L223.813 144.864ZM251.957 152.384C250.058 152.384 248.394 151.872 246.965 150.848C245.535 149.803 244.415 148.363 243.605 146.528C242.815 144.672 242.421 142.517 242.421 140.064C242.421 137.589 242.815 135.435 243.605 133.6C244.415 131.765 245.525 130.336 246.933 129.312C248.362 128.288 250.026 127.776 251.925 127.776C253.823 127.776 255.477 128.288 256.885 129.312C258.314 130.336 259.423 131.776 260.213 133.632C261.023 135.467 261.429 137.611 261.429 140.064C261.429 142.517 261.034 144.672 260.245 146.528C259.455 148.363 258.346 149.803 256.917 150.848C255.509 151.872 253.855 152.384 251.957 152.384ZM251.957 148.928C253.13 148.928 254.143 148.565 254.997 147.84C255.85 147.115 256.511 146.091 256.981 144.768C257.45 143.445 257.685 141.877 257.685 140.064C257.685 138.251 257.45 136.683 256.981 135.36C256.511 134.037 255.85 133.013 254.997 132.288C254.143 131.563 253.119 131.2 251.925 131.2C250.751 131.2 249.738 131.563 248.885 132.288C248.031 133.013 247.37 134.037 246.901 135.36C246.431 136.683 246.197 138.251 246.197 140.064C246.197 141.856 246.431 143.424 246.901 144.768C247.37 146.091 248.031 147.115 248.885 147.84C249.759 148.565 250.783 148.928 251.957 148.928ZM267.087 152V147.84H270.767V152H267.087ZM285.957 152.384C284.058 152.384 282.394 151.872 280.965 150.848C279.535 149.803 278.415 148.363 277.605 146.528C276.815 144.672 276.421 142.517 276.421 140.064C276.421 137.589 276.815 135.435 277.605 133.6C278.415 131.765 279.525 130.336 280.933 129.312C282.362 128.288 284.026 127.776 285.925 127.776C287.823 127.776 289.477 128.288 290.885 129.312C292.314 130.336 293.423 131.776 294.213 133.632C295.023 135.467 295.429 137.611 295.429 140.064C295.429 142.517 295.034 144.672 294.245 146.528C293.455 148.363 292.346 149.803 290.917 150.848C289.509 151.872 287.855 152.384 285.957 152.384ZM285.957 148.928C287.13 148.928 288.143 148.565 288.997 147.84C289.85 147.115 290.511 146.091 290.981 144.768C291.45 143.445 291.685 141.877 291.685 140.064C291.685 138.251 291.45 136.683 290.981 135.36C290.511 134.037 289.85 133.013 288.997 132.288C288.143 131.563 287.119 131.2 285.925 131.2C284.751 131.2 283.738 131.563 282.885 132.288C282.031 133.013 281.37 134.037 280.901 135.36C280.431 136.683 280.197 138.251 280.197 140.064C280.197 141.856 280.431 143.424 280.901 144.768C281.37 146.091 282.031 147.115 282.885 147.84C283.759 148.565 284.783 148.928 285.957 148.928ZM308.863 152.384C306.964 152.384 305.3 151.872 303.871 150.848C302.442 149.803 301.322 148.363 300.511 146.528C299.722 144.672 299.327 142.517 299.327 140.064C299.327 137.589 299.722 135.435 300.511 133.6C301.322 131.765 302.431 130.336 303.839 129.312C305.268 128.288 306.932 127.776 308.831 127.776C310.73 127.776 312.383 128.288 313.791 129.312C315.22 130.336 316.33 131.776 317.119 133.632C317.93 135.467 318.335 137.611 318.335 140.064C318.335 142.517 317.94 144.672 317.151 146.528C316.362 148.363 315.252 149.803 313.823 150.848C312.415 151.872 310.762 152.384 308.863 152.384ZM308.863 148.928C310.036 148.928 311.05 148.565 311.903 147.84C312.756 147.115 313.418 146.091 313.887 144.768C314.356 143.445 314.591 141.877 314.591 140.064C314.591 138.251 314.356 136.683 313.887 135.36C313.418 134.037 312.756 133.013 311.903 132.288C311.05 131.563 310.026 131.2 308.831 131.2C307.658 131.2 306.644 131.563 305.791 132.288C304.938 133.013 304.276 134.037 303.807 135.36C303.338 136.683 303.103 138.251 303.103 140.064C303.103 141.856 303.338 143.424 303.807 144.768C304.276 146.091 304.938 147.115 305.791 147.84C306.666 148.565 307.69 148.928 308.863 148.928Z" fill="#1D2020"/>
<circle cx="120" cy="185" r="4" fill="#335CFF"/>
<path d="M135.233 190V179.818H136.466V184.352H141.895V179.818H143.128V190H141.895V185.446H136.466V190H135.233ZM148.539 190.159C147.85 190.159 147.245 189.995 146.725 189.667C146.208 189.339 145.803 188.88 145.512 188.29C145.223 187.7 145.079 187.01 145.079 186.222C145.079 185.426 145.223 184.732 145.512 184.138C145.803 183.545 146.208 183.085 146.725 182.756C147.245 182.428 147.85 182.264 148.539 182.264C149.229 182.264 149.832 182.428 150.349 182.756C150.869 183.085 151.274 183.545 151.562 184.138C151.854 184.732 152 185.426 152 186.222C152 187.01 151.854 187.7 151.562 188.29C151.274 188.88 150.869 189.339 150.349 189.667C149.832 189.995 149.229 190.159 148.539 190.159ZM148.539 189.105C149.063 189.105 149.494 188.971 149.832 188.702C150.17 188.434 150.42 188.081 150.583 187.643C150.745 187.206 150.826 186.732 150.826 186.222C150.826 185.711 150.745 185.236 150.583 184.795C150.42 184.354 150.17 183.998 149.832 183.726C149.494 183.454 149.063 183.318 148.539 183.318C148.016 183.318 147.585 183.454 147.247 183.726C146.909 183.998 146.658 184.354 146.496 184.795C146.334 185.236 146.252 185.711 146.252 186.222C146.252 186.732 146.334 187.206 146.496 187.643C146.658 188.081 146.909 188.434 147.247 188.702C147.585 188.971 148.016 189.105 148.539 189.105ZM158.603 186.878V182.364H159.776V190H158.603V188.707H158.524C158.345 189.095 158.066 189.425 157.688 189.697C157.311 189.965 156.833 190.099 156.257 190.099C155.779 190.099 155.355 189.995 154.984 189.786C154.613 189.574 154.321 189.256 154.109 188.832C153.897 188.404 153.791 187.866 153.791 187.216V182.364H154.964V187.136C154.964 187.693 155.12 188.137 155.431 188.469C155.746 188.8 156.147 188.966 156.634 188.966C156.926 188.966 157.223 188.891 157.524 188.742C157.829 188.593 158.084 188.364 158.29 188.056C158.499 187.748 158.603 187.355 158.603 186.878ZM167.335 184.074L166.281 184.372C166.214 184.196 166.116 184.026 165.987 183.86C165.861 183.691 165.689 183.552 165.47 183.442C165.251 183.333 164.971 183.278 164.63 183.278C164.163 183.278 163.773 183.386 163.462 183.602C163.153 183.814 162.999 184.084 162.999 184.412C162.999 184.704 163.105 184.934 163.317 185.103C163.53 185.272 163.861 185.413 164.312 185.526L165.445 185.804C166.128 185.97 166.637 186.223 166.972 186.565C167.306 186.903 167.474 187.339 167.474 187.872C167.474 188.31 167.348 188.701 167.096 189.045C166.847 189.39 166.499 189.662 166.052 189.861C165.604 190.06 165.084 190.159 164.491 190.159C163.712 190.159 163.067 189.99 162.557 189.652C162.046 189.314 161.723 188.82 161.587 188.17L162.701 187.892C162.807 188.303 163.008 188.611 163.303 188.817C163.601 189.022 163.99 189.125 164.471 189.125C165.018 189.125 165.452 189.009 165.773 188.777C166.098 188.542 166.261 188.26 166.261 187.932C166.261 187.667 166.168 187.445 165.982 187.266C165.797 187.083 165.512 186.947 165.127 186.858L163.854 186.56C163.155 186.394 162.641 186.137 162.313 185.789C161.988 185.438 161.826 184.999 161.826 184.472C161.826 184.041 161.947 183.66 162.189 183.328C162.434 182.997 162.767 182.737 163.188 182.548C163.612 182.359 164.093 182.264 164.63 182.264C165.386 182.264 165.979 182.43 166.41 182.761C166.844 183.093 167.152 183.53 167.335 184.074ZM172.442 190.159C171.706 190.159 171.071 189.997 170.537 189.672C170.007 189.344 169.598 188.886 169.309 188.3C169.024 187.71 168.882 187.024 168.882 186.241C168.882 185.459 169.024 184.77 169.309 184.173C169.598 183.573 169.999 183.106 170.513 182.771C171.03 182.433 171.633 182.264 172.322 182.264C172.72 182.264 173.113 182.33 173.501 182.463C173.888 182.596 174.241 182.811 174.559 183.109C174.878 183.404 175.131 183.795 175.32 184.283C175.509 184.77 175.604 185.37 175.604 186.082V186.58H169.717V185.565H174.41C174.41 185.134 174.324 184.75 174.152 184.412C173.983 184.074 173.741 183.807 173.426 183.612C173.114 183.416 172.747 183.318 172.322 183.318C171.855 183.318 171.451 183.434 171.109 183.666C170.771 183.895 170.511 184.193 170.329 184.561C170.146 184.929 170.055 185.323 170.055 185.744V186.42C170.055 186.997 170.155 187.486 170.354 187.887C170.556 188.285 170.836 188.588 171.194 188.797C171.552 189.002 171.968 189.105 172.442 189.105C172.75 189.105 173.028 189.062 173.277 188.976C173.529 188.886 173.746 188.754 173.928 188.578C174.11 188.399 174.251 188.177 174.351 187.912L175.484 188.23C175.365 188.615 175.164 188.953 174.883 189.244C174.601 189.533 174.253 189.758 173.839 189.92C173.424 190.08 172.959 190.159 172.442 190.159ZM180.689 190H177.547V179.818H180.829C181.816 179.818 182.662 180.022 183.364 180.43C184.067 180.834 184.605 181.416 184.98 182.175C185.354 182.93 185.542 183.835 185.542 184.889C185.542 185.95 185.353 186.863 184.975 187.629C184.597 188.391 184.047 188.978 183.324 189.388C182.602 189.796 181.724 190 180.689 190ZM178.78 188.906H180.61C181.452 188.906 182.149 188.744 182.703 188.419C183.256 188.094 183.669 187.632 183.941 187.032C184.213 186.432 184.349 185.718 184.349 184.889C184.349 184.067 184.214 183.36 183.946 182.766C183.677 182.17 183.276 181.712 182.743 181.394C182.209 181.073 181.545 180.912 180.749 180.912H178.78V188.906ZM190.653 190.159C189.917 190.159 189.282 189.997 188.748 189.672C188.218 189.344 187.809 188.886 187.52 188.3C187.235 187.71 187.093 187.024 187.093 186.241C187.093 185.459 187.235 184.77 187.52 184.173C187.809 183.573 188.21 183.106 188.724 182.771C189.241 182.433 189.844 182.264 190.533 182.264C190.931 182.264 191.324 182.33 191.711 182.463C192.099 182.596 192.452 182.811 192.77 183.109C193.089 183.404 193.342 183.795 193.531 184.283C193.72 184.77 193.814 185.37 193.814 186.082V186.58H187.928V185.565H192.621C192.621 185.134 192.535 184.75 192.363 184.412C192.194 184.074 191.952 183.807 191.637 183.612C191.325 183.416 190.957 183.318 190.533 183.318C190.066 183.318 189.662 183.434 189.32 183.666C188.982 183.895 188.722 184.193 188.54 184.561C188.357 184.929 188.266 185.323 188.266 185.744V186.42C188.266 186.997 188.366 187.486 188.564 187.887C188.767 188.285 189.047 188.588 189.405 188.797C189.763 189.002 190.179 189.105 190.653 189.105C190.961 189.105 191.239 189.062 191.488 188.976C191.74 188.886 191.957 188.754 192.139 188.578C192.321 188.399 192.462 188.177 192.562 187.912L193.695 188.23C193.576 188.615 193.375 188.953 193.094 189.244C192.812 189.533 192.464 189.758 192.05 189.92C191.635 190.08 191.17 190.159 190.653 190.159ZM196.123 192.864C195.924 192.864 195.746 192.847 195.591 192.814C195.435 192.784 195.327 192.754 195.267 192.724L195.566 191.69C195.851 191.763 196.103 191.79 196.321 191.77C196.54 191.75 196.734 191.652 196.903 191.477C197.075 191.304 197.233 191.024 197.375 190.636L197.594 190.04L194.77 182.364H196.043L198.151 188.449H198.23L200.338 182.364H201.611L198.37 191.114C198.224 191.508 198.043 191.835 197.828 192.093C197.612 192.355 197.362 192.549 197.077 192.675C196.795 192.801 196.477 192.864 196.123 192.864ZM207.256 190V179.818H210.697C211.496 179.818 212.148 179.962 212.656 180.251C213.166 180.536 213.544 180.922 213.789 181.409C214.034 181.896 214.157 182.44 214.157 183.04C214.157 183.64 214.034 184.185 213.789 184.675C213.547 185.166 213.173 185.557 212.665 185.849C212.158 186.137 211.509 186.281 210.717 186.281H208.251V185.188H210.677C211.224 185.188 211.663 185.093 211.994 184.904C212.326 184.715 212.566 184.46 212.715 184.138C212.868 183.814 212.944 183.447 212.944 183.04C212.944 182.632 212.868 182.268 212.715 181.946C212.566 181.625 212.324 181.373 211.989 181.19C211.655 181.005 211.21 180.912 210.657 180.912H208.489V190H207.256ZM218.231 190.179C217.747 190.179 217.308 190.088 216.914 189.906C216.519 189.72 216.206 189.453 215.974 189.105C215.742 188.754 215.626 188.33 215.626 187.832C215.626 187.395 215.712 187.04 215.885 186.768C216.057 186.493 216.287 186.278 216.576 186.122C216.864 185.966 217.182 185.85 217.53 185.774C217.882 185.695 218.234 185.632 218.589 185.585C219.053 185.526 219.429 185.481 219.718 185.451C220.009 185.418 220.221 185.363 220.354 185.287C220.49 185.211 220.558 185.078 220.558 184.889V184.849C220.558 184.359 220.424 183.978 220.155 183.706C219.89 183.434 219.487 183.298 218.947 183.298C218.387 183.298 217.948 183.421 217.63 183.666C217.311 183.911 217.088 184.173 216.958 184.452L215.845 184.054C216.044 183.59 216.309 183.229 216.64 182.97C216.975 182.708 217.34 182.526 217.734 182.423C218.132 182.317 218.523 182.264 218.907 182.264C219.153 182.264 219.434 182.294 219.752 182.354C220.074 182.41 220.384 182.528 220.682 182.707C220.984 182.886 221.234 183.156 221.433 183.517C221.632 183.878 221.731 184.362 221.731 184.969V190H220.558V188.966H220.498C220.419 189.132 220.286 189.309 220.1 189.498C219.915 189.687 219.668 189.848 219.36 189.98C219.051 190.113 218.675 190.179 218.231 190.179ZM218.41 189.125C218.874 189.125 219.265 189.034 219.583 188.852C219.905 188.669 220.147 188.434 220.309 188.146C220.475 187.857 220.558 187.554 220.558 187.236V186.162C220.508 186.222 220.399 186.276 220.23 186.326C220.064 186.372 219.872 186.414 219.653 186.45C219.438 186.483 219.227 186.513 219.022 186.54C218.819 186.563 218.655 186.583 218.529 186.599C218.225 186.639 217.94 186.704 217.674 186.793C217.413 186.879 217.2 187.01 217.038 187.186C216.879 187.358 216.799 187.594 216.799 187.892C216.799 188.3 216.95 188.608 217.252 188.817C217.557 189.022 217.943 189.125 218.41 189.125ZM224.355 192.864C224.156 192.864 223.979 192.847 223.823 192.814C223.667 192.784 223.559 192.754 223.5 192.724L223.798 191.69C224.083 191.763 224.335 191.79 224.554 191.77C224.773 191.75 224.966 191.652 225.135 191.477C225.308 191.304 225.465 191.024 225.608 190.636L225.827 190.04L223.003 182.364H224.275L226.383 188.449H226.463L228.571 182.364H229.844L226.602 191.114C226.456 191.508 226.276 191.835 226.06 192.093C225.845 192.355 225.595 192.549 225.309 192.675C225.028 192.801 224.71 192.864 224.355 192.864ZM231.392 190V182.364H232.526V183.557H232.625C232.784 183.149 233.041 182.833 233.396 182.607C233.75 182.379 234.176 182.264 234.673 182.264C235.177 182.264 235.597 182.379 235.931 182.607C236.269 182.833 236.533 183.149 236.722 183.557H236.801C236.997 183.162 237.29 182.849 237.681 182.617C238.072 182.382 238.541 182.264 239.088 182.264C239.771 182.264 240.329 182.478 240.764 182.906C241.198 183.33 241.415 183.991 241.415 184.889V190H240.242V184.889C240.242 184.326 240.088 183.923 239.779 183.681C239.471 183.439 239.108 183.318 238.691 183.318C238.154 183.318 237.738 183.481 237.443 183.805C237.148 184.127 237 184.535 237 185.028V190H235.807V184.77C235.807 184.336 235.666 183.986 235.384 183.721C235.103 183.452 234.74 183.318 234.296 183.318C233.991 183.318 233.706 183.399 233.441 183.562C233.179 183.724 232.967 183.95 232.804 184.238C232.645 184.523 232.566 184.853 232.566 185.227V190H231.392ZM246.762 190.159C246.026 190.159 245.391 189.997 244.858 189.672C244.327 189.344 243.918 188.886 243.63 188.3C243.345 187.71 243.202 187.024 243.202 186.241C243.202 185.459 243.345 184.77 243.63 184.173C243.918 183.573 244.319 183.106 244.833 182.771C245.35 182.433 245.953 182.264 246.643 182.264C247.04 182.264 247.433 182.33 247.821 182.463C248.209 182.596 248.562 182.811 248.88 183.109C249.198 183.404 249.452 183.795 249.64 184.283C249.829 184.77 249.924 185.37 249.924 186.082V186.58H244.037V185.565H248.731C248.731 185.134 248.644 184.75 248.472 184.412C248.303 184.074 248.061 183.807 247.746 183.612C247.435 183.416 247.067 183.318 246.643 183.318C246.175 183.318 245.771 183.434 245.43 183.666C245.091 183.895 244.831 184.193 244.649 184.561C244.467 184.929 244.376 185.323 244.376 185.744V186.42C244.376 186.997 244.475 187.486 244.674 187.887C244.876 188.285 245.156 188.588 245.514 188.797C245.872 189.002 246.288 189.105 246.762 189.105C247.07 189.105 247.349 189.062 247.597 188.976C247.849 188.886 248.066 188.754 248.248 188.578C248.431 188.399 248.572 188.177 248.671 187.912L249.805 188.23C249.685 188.615 249.485 188.953 249.203 189.244C248.921 189.533 248.573 189.758 248.159 189.92C247.745 190.08 247.279 190.159 246.762 190.159ZM252.882 185.406V190H251.709V182.364H252.842V183.557H252.942C253.121 183.169 253.392 182.857 253.757 182.622C254.122 182.384 254.592 182.264 255.169 182.264C255.686 182.264 256.138 182.37 256.526 182.582C256.914 182.791 257.215 183.109 257.431 183.537C257.646 183.961 257.754 184.498 257.754 185.148V190H256.581V185.227C256.581 184.627 256.425 184.16 256.113 183.825C255.802 183.487 255.374 183.318 254.831 183.318C254.456 183.318 254.122 183.399 253.827 183.562C253.535 183.724 253.305 183.961 253.135 184.273C252.966 184.584 252.882 184.962 252.882 185.406ZM263.219 182.364V183.358H259.262V182.364H263.219ZM260.415 180.534H261.588V187.812C261.588 188.144 261.636 188.393 261.733 188.558C261.832 188.721 261.958 188.83 262.11 188.886C262.266 188.939 262.43 188.966 262.603 188.966C262.732 188.966 262.838 188.959 262.921 188.946C263.004 188.929 263.07 188.916 263.12 188.906L263.358 189.96C263.279 189.99 263.168 190.02 263.025 190.05C262.883 190.083 262.702 190.099 262.483 190.099C262.152 190.099 261.827 190.028 261.509 189.886C261.194 189.743 260.932 189.526 260.723 189.234C260.518 188.943 260.415 188.575 260.415 188.131V180.534Z" fill="#687373"/>
</g>
</g>
<defs>
<filter id="filter0_d_306_2523" x="84" y="42" width="538" height="286" filterUnits="userSpaceOnUse" color-interpolation-filters="sRGB">
<feFlood flood-opacity="0" result="BackgroundImageFix"/>
<feColorMatrix in="SourceAlpha" type="matrix" values="0 0 0 0 0 0 0 0 0 0 0 0 0 0 0 0 0 0 127 0" result="hardAlpha"/>
<feOffset dy="1"/>
<feGaussianBlur stdDeviation="1"/>
<feComposite in2="hardAlpha" operator="out"/>
<feColorMatrix type="matrix" values="0 0 0 0 0.0392157 0 0 0 0 0.0509804 0 0 0 0 0.0784314 0 0 0 0.03 0"/>
<feBlend mode="normal" in2="BackgroundImageFix" result="effect1_dropShadow_306_2523"/>
<feBlend mode="normal" in="SourceGraphic" in2="effect1_dropShadow_306_2523" result="shape"/>
</filter>
<filter id="filter1_d_306_2523" x="450" y="225" width="40" height="40" filterUnits="userSpaceOnUse" color-interpolation-filters="sRGB">
<feFlood flood-opacity="0" result="BackgroundImageFix"/>
<feColorMatrix in="SourceAlpha" type="matrix" values="0 0 0 0 0 0 0 0 0 0 0 0 0 0 0 0 0 0 127 0" result="hardAlpha"/>
<feOffset dy="2"/>
<feGaussianBlur stdDeviation="2"/>
<feColorMatrix type="matrix" values="0 0 0 0 0.105882 0 0 0 0 0.109804 0 0 0 0 0.113725 0 0 0 0.04 0"/>
<feBlend mode="normal" in2="BackgroundImageFix" result="effect1_dropShadow_306_2523"/>
<feBlend mode="normal" in="SourceGraphic" in2="effect1_dropShadow_306_2523" result="shape"/>
</filter>
<linearGradient id="paint0_linear_306_2523" x1="110" y1="243" x2="470" y2="243" gradientUnits="userSpaceOnUse">
<stop stop-color="#6895FF"/>
<stop offset="1" stop-color="#68CDFF"/>
</linearGradient>
<clipPath id="clip0_306_2523">
<rect width="706" height="368" fill="white"/>
</clipPath>
</defs>
</svg>
